<svg version="1" xmlns="http://www.w3.org/2000/svg" width="28" height="28" viewBox="0 0 28 28"><path fill="#32363a" d="M20.125 12.038c.255 0 .465.082.629.246s.246.374.246.629v1.75c0 .237-.082.443-.246.615-.164.174-.374.26-.629.26h-.766l-.164.41-.164.383.547.547c.164.164.246.369.246.615s-.082.451-.246.615l-1.258 1.258c-.164.164-.365.246-.602.246-.256 0-.465-.082-.629-.246l-.547-.574-.383.191-.41.164v.766c0 .237-.082.442-.246.615-.164.174-.374.26-.629.26h-1.75c-.256 0-.465-.086-.629-.26-.164-.173-.246-.378-.246-.615v-.766l-.41-.164-.383-.191-.547.574c-.164.164-.374.246-.629.246-.237 0-.438-.082-.602-.246l-1.258-1.258c-.164-.164-.246-.369-.246-.615s.082-.451.246-.615l.547-.547-.178-.383c-.064-.127-.114-.264-.15-.41h-.764c-.255 0-.465-.086-.629-.26-.164-.173-.246-.378-.246-.615v-1.75c0-.255.082-.465.246-.629s.374-.246.629-.246h.766c.036-.146.086-.282.15-.41l.178-.383-.547-.547c-.164-.182-.246-.392-.246-.629s.082-.438.246-.602l1.258-1.258c.164-.164.364-.246.602-.246.255 0 .465.082.629.246l.547.547.383-.178c.127-.063.264-.114.41-.15v-.765c0-.255.082-.465.246-.629s.373-.246.629-.246h1.75c.255 0 .465.082.629.246s.246.374.246.629v.766c.146.037.282.087.41.15l.383.178.547-.547c.164-.164.373-.246.629-.246.236 0 .438.082.602.246l1.258 1.258c.164.164.246.365.246.602s-.082.447-.246.629l-.547.547.164.383.164.41h.764zm0 .875h-1.4220000000000002l-.191-.602-.123-.342-.15-.342-.301-.547.465-.465.547-.547-1.23-1.23-.547.547-.465.438-.574-.273-.328-.15-.328-.123-.602-.219v-1.395h-1.75v1.395l-.602.219-.342.123-.342.15-.547.273-.465-.438-.547-.547-1.23 1.23.547.547.438.465-.273.547-.15.342-.123.342-.22.602h-1.395v1.75h1.395l.219.601.123.328.15.328.273.574-.438.465-.547.547 1.23 1.23.547-.547.465-.465.547.301.342.15.342.123.602.191v1.4220000000000002h1.75v-1.421l.602-.191.328-.123.328-.15.574-.301.465.465.547.547 1.23-1.23-.547-.547-.465-.465.301-.574.15-.328.123-.328.191-.601h1.4220000000000002v-1.751zm-6.125-1.75c.729 0 1.349.255 1.859.766s.766 1.13.766 1.859c0 .729-.256 1.349-.766 1.859-.511.512-1.131.766-1.859.766-.729 0-1.35-.254-1.859-.766-.511-.51-.766-1.129-.766-1.859 0-.729.255-1.349.766-1.859.509-.511 1.13-.766 1.859-.766zm0 4.374c.474 0 .884-.172 1.23-.52.346-.346.52-.756.52-1.23s-.174-.884-.52-1.23c-.347-.346-.757-.52-1.23-.52-.475 0-.885.173-1.23.52-.347.347-.52.757-.52 1.23 0 .474.173.884.52 1.23.345.348.755.52 1.23.52z"/></svg>