<?xml version="1.0" standalone="no"?>
<!DOCTYPE svg PUBLIC "-//W3C//DTD SVG 1.1//EN" "http://www.w3.org/Graphics/SVG/1.1/DTD/svg11.dtd" >
<svg xmlns="http://www.w3.org/2000/svg">
  <metadata>Created by iconfont</metadata>
  <defs>
  <font id="commerce_BO_extended" horiz-adv-x="1024">
    <font-face
      font-family="commerce_BO_extended"
      font-weight="400"
      font-stretch="normal"
      units-per-em="1024"
      ascent="896"
      descent="-128"
    />
      <missing-glyph />
      
      <glyph glyph-name="a-74_bulkedit" unicode="&#59161;" d="M477.44419 895.875855c22.84523 0 41.530964-19.389649 41.530964-43.194763 0-21.629377-15.42213-39.547205-35.451701-42.682824l-6.143255-0.447946H221.987164v-668.20698h718.696858V470.647414c0 23.805114 18.685734 43.13077 41.594957 43.13077 20.797478 0 38.139376-15.99806 41.147011-36.795538l0.511938-6.399224v-372.434843c0-21.629377-15.358138-39.547205-35.451702-42.682824l-6.079263-0.447946h-97.268206v-139.823046c0-21.69337-15.358138-39.675189-35.451702-42.746817l-6.143255-0.447946H41.657029a42.170887 42.170887 0 0 0-41.083019 36.795539l-0.447945 6.399224V642.914527c0 21.629377 15.358138 39.675189 35.451701 42.682824l6.079263 0.511938h97.268206V852.681092c0 21.69337 15.358138 39.675189 35.451702 42.746817L180.4562 895.875855h296.923998zM138.925235 599.591779h-55.737242v-641.39423H801.884851V55.017809H180.520192a42.170887 42.170887 0 0 0-41.147011 36.795539l-0.447946 6.399224V599.591779zM829.593492 883.397368a43.322747 43.322747 0 0 0 55.801234 4.415465l5.375348-4.543449 120.305413-120.305413a43.13077 43.13077 0 0 0 4.351472-56.24918l-4.479456-5.183372-461.576034-456.32867a44.282631 44.282631 0 0 0-14.078293-9.342867l-5.503333-1.791783-155.501146-40.699065a43.514724 43.514724 0 0 0-54.201428 44.858561l0.895892 6.399224 35.13174 160.940486a44.154646 44.154646 0 0 0 7.743061 16.765967l4.095504 4.735426 461.640026 456.264678z m30.204338-91.892858L437.960977 374.467076l-17.341897-79.542356 76.150767 19.901587 422.220805 417.549372-59.12883 59.064839z"  horiz-adv-x="1024" />
      
      <glyph glyph-name="a-73_icon_Customer_data_Cloud" unicode="&#59160;" d="M543.99 511.53c-35.35 0-64-28.65-64-64s28.65-64 64-64 64 28.65 64 64-28.66 64-64 64zM401.05 603l-5.51-13.19-13.75-34.6-36.94 4.71c-30.86 3.94-53.13-1.85-70.37-16.75-15.96-13.79-27.5-38.34-33.12-75.24l-1.65-12.76-3.53-32.59-31.63-8.58c-59.99-16.26-87.77-44.24-92.88-88.1-7.93-68.17 14.7-101.04 70.68-104.31l9.64-0.27h128c2.39 0 4.74-0.17 7.04-0.51 31.47 42.75 74.79 76.27 125.1 95.76-41.2 28.88-68.14 76.78-68.14 130.96 0 88.37 71.63 160 160 160s160-71.63 160-160c0-51.3-24.14-96.95-61.68-126.23 52.31-17.08 97.89-49.24 131.67-91.28l4.9 0.09c94.6-4.68 135.12 26.91 141.28 105.12 6.19 78.51-24.53 125.64-100.56 151.5l-11.74 3.72-27.77 8.19-5.71 28.39c-26.07 129.65-84.12 192.48-178.38 201-91.27 8.24-153.61-30.8-194.95-125.03zM604.64 823.63c130.96-11.84 217.45-96.5 256.06-243.9l1.58-6.4c109.2-41.77 162.96-126.76 153.59-245.65-9.19-116.52-77.56-183.11-191.75-192.74 7.73-25.73 11.91-53.09 11.91-81.42 0-26.51-21.49-48-48-48s-48 21.49-48 48c0 102.74-83.28 186.02-186.02 186.02-99.07 0-180.05-77.44-185.7-175.09l-0.32-10.93v-24.67l230.93-0.01c24.3 0 44.38-18.06 47.56-41.49l0.44-6.51c0-24.3-18.06-44.38-41.49-47.56l-6.51-0.44H335.99c-35.35 0-64 28.65-64 64v56.68c0 24.82 3.21 48.88 9.22 71.81l-89.22-0.01C68.67 125.32 1.59 210.54 16.31 337c8.49 72.93 51.34 125.74 122.71 155.85l9.96 3.96c9.18 46.28 26.68 83.19 53.46 110.31l9.27 8.68c29.23 25.26 64.45 38.83 104.15 40.99l4.38 0.15 5.78 11.39c59.05 112.65 154.07 166.56 278.62 155.3z"  horiz-adv-x="1024" />
      
      <glyph glyph-name="a-70_icon_digital_payment" unicode="&#59157;" d="M384.182411 681.604685c11.994143 0 21.989263-3.998048 29.985359-11.994143s11.994143-17.991215 11.994143-29.985359v-41.979502h85.958028c11.994143 0 21.989263-4.327887 29.985359-12.993656s11.994143-18.990727 11.994144-30.98487c0-10.664793-3.998048-20.320078-11.994144-28.985847-7.996096-8.665769-17.991215-12.993655-29.985359-12.993655h-169.917032c-11.994143 0-22.319102-4.327887-30.984871-12.993656s-12.993655-18.321054-12.993655-28.985847c0-11.994143 4.327887-22.319102 12.993655-30.98487s18.990727-12.993655 30.984871-12.993656h83.959004c34.65308 0 64.638438-12.323982 89.956076-36.981942s37.981454-54.973158 37.981455-90.955588c0-34.65308-12.663816-64.638438-37.981455-89.956076s-55.302997-37.981454-89.956076-37.981455v-41.979502c0-11.994143-3.998048-21.989263-11.994143-29.985359s-17.991215-11.994143-29.985359-11.994143-21.989263 3.998048-29.985359 11.994143-11.994143 17.991215-11.994143 29.985359v41.979502h-85.958029c-11.994143 0-21.989263 4.327887-29.985358 12.993656s-11.994143 18.990727-11.994144 30.98487 3.998048 21.989263 11.994144 29.985359 17.991215 11.994143 29.985358 11.994144h169.917033c11.994143 0 22.319102 4.327887 30.984871 12.993655s12.993655 18.321054 12.993655 28.985847c0 11.994143-4.327887 22.319102-12.993655 30.98487s-18.990727 12.993655-30.984871 12.993656h-83.959004c-35.98243 0-66.297628 12.323982-90.955588 36.981942s-36.981942 54.973158-36.981943 90.955588c0 34.65308 12.323982 64.638438 36.981943 89.956076s54.973158 37.981454 90.955588 37.981455v41.979502c0 11.994143 3.998048 21.989263 11.994143 29.985359s17.991215 11.994143 29.985359 11.994143z m275.075686 117.942411h-550.131382c-7.06655 0-12.793753-5.727204-12.793753-12.793753v-806.006442c0-7.06655 5.727204-12.793753 12.793753-12.793753h550.131382c7.06655 0 12.793753 5.727204 12.793753 12.793753V786.753343c-0.009995 7.06655-5.737199 12.793753-12.793753 12.793753z m252.666627 15.992191c52.994124 0 95.953148-42.959024 95.953148-95.953147v-671.672036c0-52.994124-42.959024-95.953148-95.953148-95.953147h-79.960956c-26.497062 0-47.976574 21.479512-47.976574 47.976574 0 24.288141 18.051186 44.358341 41.469751 47.536788l6.506823 0.439785h67.167203c7.06655 0 12.793753 5.727204 12.793753 12.793753V706.792387c0 7.06655-5.727204 12.793753-12.793753 12.793753h-67.167203c-24.288141 0-44.358341 18.051186-47.536789 41.469751l-0.439785 6.506823c0 24.288141 18.051186 44.358341 41.469751 47.536788l6.506823 0.439785h79.960956z m-239.882869 79.960957c52.994124 0 95.953148-42.959024 95.953147-95.953148v-831.593948c0-52.994124-42.959024-95.953148-95.953147-95.953148h-575.718888c-52.994124 0-95.953148 42.959024-95.953148 95.953148v831.593948c0 52.994124 42.959024 95.953148 95.953148 95.953148h575.718888z"  horiz-adv-x="1024" />
      
      <glyph glyph-name="a-71_icon_Subscription_Billing" unicode="&#59158;" d="M485.98 545.83c15.88-18.13 15.67-44.84 0.52-62.67l-4.99-5.07-123.06-107.82c-25.47-22.32-63.92-20.93-87.72 3.17l-59.19 59.94c-18.63 18.86-18.44 49.25 0.43 67.88 17.15 16.93 43.82 18.32 62.53 4.25l5.35-4.68 38.01-38.44 100.39 87.91c19.93 17.47 50.26 15.47 67.73-4.47z m278.16 224.5c21.48 0 39.24-15.96 42.05-36.68l0.39-5.76v-33.55l56.33-0.02c23.44 0 42.44-19 42.44-42.44 0-21.48-15.96-39.24-36.68-42.05l-5.76-0.39H707.39c-6.7 0-12.31-4.65-13.77-10.9l-0.37-3.24v-19.45c0-6.7 4.65-12.31 10.9-13.77l3.24-0.37h98.94c51.95 0 94.56-40.01 98.69-90.89l0.33-8.12v-22.99c0-51.95-40.01-94.56-90.89-98.69l-7.87-0.31v-39.95c0-23.44-19-42.44-42.44-42.44-21.48 0-39.24 15.96-42.05 36.68l-0.39 5.76v39.95l-70.9-0.02c-23.44 0-42.44 19-42.44 42.44 0 21.48 15.96 39.24 36.68 42.05l5.76 0.39h155.52c6.7 0 12.31 4.65 13.77 10.9l0.37 3.24V462.7c0 6.7-4.65 12.31-10.9 13.77l-3.24 0.37h-98.94c-51.95 0-94.56 40.01-98.69 90.89l-0.33 8.12V595.3c0 51.95 40.01 94.56 90.89 98.69l8.12 0.33 14.31 0.02v33.55c0.02 23.44 19.02 42.44 42.45 42.44zM471.97 243.46c22.32 0 40.41-21.49 40.41-48 0-24.3-15.2-44.38-34.92-47.56l-5.48-0.44h-271.2c-22.32 0-40.41 21.49-40.41 48 0 24.3 15.2 44.38 34.92 47.56l5.48 0.44h271.2zM576.38 879.5c61.86 0 112-50.14 112-112 0-26.51-21.49-48-48-48s-48 21.49-48 48c0 7.57-5.26 13.92-12.33 15.58l-10.78 0.42H128.38c-7.57 0-13.92-5.26-15.58-12.33l-0.42-3.67v-768c0-7.57 5.26-13.92 12.33-15.58l3.67-0.42 479.21-0.09c-6.37 15.34-10.96 32.46-13.68 51.31l-1.53 12.78v128c0 26.51 21.49 48 48 48 24.3 0 44.38-18.06 47.56-41.49l0.44-6.51-0.23-123.31c4.89-49.72 26.57-68.69 80.23-68.69 50.31 0 72.51 16.67 78.92 55.86l1.08 8.14v67.25c0 7.07-5.73 12.8-12.8 12.8l-40.75-0.05c-24.3 0-44.38 18.06-47.56 41.49l-0.44 6.51c0 24.3 18.06 44.38 41.49 47.56l6.51 0.44h53.55c49.9 0.08 90.91-37.98 95.56-86.66l0.35-9.34-0.14-84.69c-9.79-99.61-73.44-155.31-175.77-155.31h-640c-58.76 0-106.96 45.26-111.63 102.81l-0.37 9.19v768c0 58.76 45.26 106.96 102.81 111.63l9.19 0.37h448z"  horiz-adv-x="1024" />
      
      <glyph glyph-name="a-72_icon_cloud_platform_integration" unicode="&#59159;" d="M502 492.82h-64v-64h64v64z m448-64h-64v-64h64v64z m-256-128h-64v-64h64v64z m-52 440.41l5.08-8.34 8.59 3.99c37.27 16.09 78.82 20.37 123.52 12.83l15.01-2.95c79.87-17.9 132.63-76.84 155.75-168.88 6.46-25.71-9.15-51.79-34.86-58.25-25.71-6.46-51.79 9.15-58.25 34.86-14.83 59.02-41.87 89.24-83.63 98.59-41.82 9.37-74.73 3.35-102.69-18.11l-8.25-6.9-47.86-43.48-27.76 58.4c-55.15 116-122.34 155.9-211.63 132.74-83.11-21.56-113-76.93-92.71-185.53l2.8-13.85 10.77-49.75-50.3-7.83c-74.01-11.52-115.39-50.11-131.69-122.68-21.43-95.42 12.11-144.87 82.89-148.68l9.04-0.24h203.52c26.51 0 48-21.49 48-48 0-24.3-18.06-44.38-41.49-47.56l-6.51-0.44H205.81C65.99 151.17-15.3 259 20.22 417.13c20.62 91.79 73.83 154.03 155.36 182.81l7.82 2.6-1.43 14.51c-10.43 126.19 42.1 213.13 155.58 247.82l13.36 3.77C470.66 899.71 569.87 854.41 642 741.23z m244-696.41h-64v-64h64v64z m-384 0h-64v-64h64v64z m32 512c17.67 0 32-14.33 32-32v-115.33l42.05-44.67H726c4.33 0 8.46-0.86 12.23-2.42L822 414.61v46.21c0 17.67 14.33 32 32 32h128c17.67 0 32-14.33 32-32v-128c0-17.67-14.33-32-32-32H854c-17.67 0-32 14.33-32 32v6.4l-64-39.94v-93.12l51.52-97.34H918c17.67 0 32-14.33 32-32v-128c0-17.67-14.33-32-32-32H790c-17.67 0-32 14.33-32 32V64.55l-54.78 108.27h-85.7l-51.53-95.09 0.01-128.91c0-17.67-14.33-32-32-32H406c-17.67 0-32 14.33-32 32v128c0 17.67 14.33 32 32 32h104l56 103.23v104l-45.82 48.77H406c-17.67 0-32 14.33-32 32v128c0 17.67 14.33 32 32 32h128z"  horiz-adv-x="1024" />
      
      <glyph glyph-name="a-01_audit_createauditreport" unicode="&#59010;" d="M463.773548 639.625183c26.497062 0 47.976574-21.479512 47.976574-47.976574s-21.479512-47.976574-47.976574-47.976574H239.88287c-26.497062 0-47.976574 21.479512-47.976574 47.976574s21.479512 47.976574 47.976574 47.976574h223.890678z m-63.968765-191.906296c26.497062 0 47.976574-21.479512 47.976574-47.976574s-21.479512-47.976574-47.976574-47.976574H239.88287c-26.497062 0-47.976574 21.479512-47.976574 47.976574s21.479512 47.976574 47.976574 47.976574h159.921913z m335.836017 95.953148c-67.447067 0-122.700088-51.584812-127.617686-114.793948l-0.359825-9.105554 0.229888-9.575325c2.918575-53.423914 39.810561-98.861728 90.565779-114.034319l9.675275-2.488785c9.145534-1.879082 18.311059-2.808629 27.486579-2.808628s18.361035 0.939541 27.556545 2.818624c54.72328 11.824226 95.373431 57.931713 99.961191 113.094778l0.42979 10.444899C863.578331 487.059678 806.296301 543.672035 735.6408 543.672035z m-399.804782-287.859443c26.497062 0 47.976574-21.479512 47.976574-47.976574s-21.479512-47.976574-47.976574-47.976574h-95.953148c-26.497062 0-47.976574 21.479512-47.976574 47.976574s21.479512 47.976574 47.976574 47.976574h95.953148z m399.804782 383.812591c123.649624 0 223.890678-100.241054 223.890679-223.890678 0-107.167672-75.293236-196.743934-175.864129-218.723202l-0.029985-53.144051c-0.029985-15.702333 11.274495-28.765954 26.197208-31.484626l5.767184-0.499756h31.984383c26.497062 0 47.976574-21.479512 47.976574-47.976574s-21.479512-47.976574-47.976574-47.976574H623.695461c-26.497062 0-47.976574 21.479512-47.976574 47.976574s21.479512 47.976574 47.976574 47.976574h31.984383c17.661376 0 31.984383 14.323006 31.984382 31.984382l0.009996 53.124061c-96.732767 21.109693-170.096945 104.758848-175.594261 206.45919L511.750122 415.734505c0 119.531635 93.664265 217.183953 211.606676 223.560839l12.284002 0.329839z m175.914105-655.679844c26.497062 0 47.976574-21.479512 47.976574-47.976574s-21.479512-47.976574-47.976574-47.976574H559.726696c-26.497062 0-47.976574 21.479512-47.976574 47.976574s21.479512 47.976574 47.976574 47.976574h351.828209z m15.992191 911.554905c52.994124 0 95.953148-42.959024 95.953148-95.953148v-85.638184c0-27.346647-22.169175-49.525817-49.525817-49.525818-25.06776 0-45.797638 18.630903-49.076038 42.799102l-0.44978 6.716721V764.464226c0 17.661376-14.323006 31.984383-31.984383 31.984383H131.036018c-17.661376 0-31.984383-14.323006-31.984383-31.984383v-761.428208c0-17.661376 14.323006-31.984383 31.984383-31.984383h248.648589c25.06776 0 45.797638-18.630903 49.076037-42.809097l0.449781-6.716721c0-25.06776-18.630903-45.797638-42.799102-49.076037l-6.716721-0.44978H95.953148c-52.994124 0-95.953148 42.959024-95.953148 95.953148v831.593948C0 852.54122 42.959024 895.500244 95.953148 895.500244h831.593948z"  horiz-adv-x="1024" />
      
      <glyph glyph-name="a-02_enumration" unicode="&#59011;" d="M477.44 896c22.848 0 41.536-19.392 41.536-43.2 0-21.632-15.424-39.552-35.456-42.688l-6.144-0.448H221.952v-668.288h718.784V470.72c0 23.808 18.688 43.136 41.6 43.136 20.8 0 38.144-16 41.152-36.8l0.512-6.4v-372.48c0-21.632-15.36-39.552-35.456-42.688l-6.08-0.448h-97.28v-139.84c0-21.696-15.36-39.68-35.456-42.752l-6.144-0.448H41.6a42.176 42.176 0 0 0-41.088 36.8l-0.448 6.4V643.008c0 21.632 15.36 39.68 35.456 42.688l6.08 0.512h97.28V852.8c0 21.696 15.36 39.68 35.456 42.752L180.416 896h296.96zM138.88 599.6800000000001h-55.744v-641.472H801.92V55.039999999999964H180.48a42.176 42.176 0 0 0-41.152 36.8l-0.448 6.4V599.6800000000001z m820.8 172.224a59.52 59.52 0 0 0 3.584-77.568l-5.952-6.528-342.528-323.584a79.36 79.36 0 0 0-104.832-3.584l-7.552 7.04-144.128 154.112a59.52 59.52 0 0 0 80.384 87.296l6.528-6.016L561.92 478.208l313.6 296.128a59.52 59.52 0 0 0 84.096-2.432z"  horiz-adv-x="1024" />
      
      <glyph glyph-name="a-03_excelexport" unicode="&#59012;" d="M751.04 783.5h-63.17v-147.2c0-7.07 5.73-12.8 12.8-12.8h179.2v56.96L751.04 783.5z m11.22 96c14.53 0 28.63-4.95 39.98-14.02l149.61-119.69a64.01 64.01 0 0 0 24.02-49.98V495.5c0-26.51-21.49-48-48-48s-48 21.49-48 48v32h-224c-35.35 0-64 28.65-64 64v192h-256v-128c0-26.51-21.49-48-48-48s-48 21.49-48 48v160c0 35.35 28.65 64 64 64h458.39zM240.84 471.12h-62.27l78.4-118.27-81.54-120.96h60.93l51.52 82.43 52.42-82.43h60.03l-81.09 120.96 81.09 118.27H338.5l-50.62-78.85-47.04 78.85z m568.54-31.49l5.56-5.14 135.3-149.55c10.31-15.31 12.41-35.3 5.98-52.6l-3.28-7.22-135.3-149.55c-17.17-16.11-42.36-16.11-59.53 0-12.51 14.71-14.07 36.61-4.69 53.11l4.69 6.71 64.94 71.78h-206.6c-22.73 1.86-40.37 22.67-40.59 47.85 0.51 22.06 15.02 40.24 34.08 44.12l6.51 0.75h206.6l-64.94 71.78c-15.69 17.34-15.69 45.47 0 62.81 13.96 15.43 35.61 17.14 51.27 5.15zM422.27 575.5c23.76 0 46.55-9.44 63.36-26.24a89.57 89.57 0 0 0 25.8-54.5l0.44-8.86v-268.8c0-23.76-9.44-46.55-26.24-63.36a89.57 89.57 0 0 0-54.5-25.8l-8.86-0.44h-89.6v-112c0-17.67 14.33-32 32-32h448c26.51 0 48-21.49 48-48s-21.49-48-48-48h-512c-35.35 0-64 28.65-64 64v176h-83.2c-20.79 0-40.84 7.23-56.78 20.29l-6.57 5.95a89.57 89.57 0 0 0-25.8 54.5l-0.44 8.86V485.9c0 23.76 9.44 46.55 26.24 63.36a89.57 89.57 0 0 0 54.5 25.8l8.86 0.44h268.79z"  horiz-adv-x="1024" />
      
      <glyph glyph-name="a-04_exporttemplate" unicode="&#59013;" d="M689.76 783.5h-65.41v-147.2c0-7.07 5.73-12.8 12.8-12.8h211.2v54.27L689.76 783.5z m-249.41-144c22.09 0 40-21.49 40-48s-17.91-48-40-48h-240c-22.09 0-40 21.49-40 48s17.91 48 40 48h240z m-80-192c22.09 0 40-21.49 40-48s-17.91-48-40-48h-160c-22.09 0-40 21.49-40 48s17.91 48 40 48h160z m-80-192c22.09 0 40-21.49 40-48s-17.91-48-40-48h-80c-22.09 0-40 21.49-40 48s17.91 48 40 48h80z m495.95 62.34l4.78-2.74L949.91 181c12.38-9.13 13.76-27.9 4.05-39.17L949.8 138 780.96 3.8999999999999773c-13.93-10.33-32.16-1.38-35.67 15.48l-0.6 5.9V109.60000000000002l-3.54-0.54-3.54-0.18H430.68c-23.11 0-46.33 25.25-46.33 50.62 0 22.95 19.1 46.01 40.02 50.01l6.31 0.61h307.05l3.54-0.18 3.54-0.54v84.32c0 18.48 16.83 30.31 31.49 24.12zM699.5 879.5c12.63 0 24.99-3.74 35.5-10.75l180.84-120.56a64.009 64.009 0 0 0 28.5-53.25V383.5c0-26.51-21.49-48-48-48-24.3 0-44.38 18.06-47.56 41.49l-0.44 6.51v144h-256c-35.35 0-64 28.65-64 64v192h-384c-17.67 0-32-14.33-32-32v-736c0-17.67 14.33-32 32-32h304c24.3 0 44.38-18.06 47.56-41.49l0.44-6.51c0-24.3-18.06-44.38-41.49-47.56l-6.51-0.44h-336c-53.02 0-96 42.98-96 96v800c0 53.02 42.98 96 96 96H699.5z"  horiz-adv-x="1024" />
      
      <glyph glyph-name="a-05_excelimport" unicode="&#59014;" d="M751.04 783.5h-63.17v-147.2c0-7.07 5.73-12.8 12.8-12.8h179.2v56.96L751.04 783.5z m11.22 96c14.53 0 28.63-4.95 39.98-14.02l149.61-119.69a64.01 64.01 0 0 0 24.02-49.98V495.5c0-26.51-21.49-48-48-48s-48 21.49-48 48v32h-224c-35.35 0-64 28.65-64 64v192h-256v-128c0-26.51-21.49-48-48-48s-48 21.49-48 48v160c0 35.35 28.65 64 64 64h458.39zM240.84 471.12h-62.27l78.4-118.27-81.54-120.96h60.93l51.52 82.43 52.42-82.43h60.03l-81.09 120.96 81.09 118.27H338.5l-50.62-78.85-47.04 78.85z m485.53-399.75l-5.56 5.14-135.3 149.55c-10.31 15.31-12.41 35.3-5.98 52.6l3.28 7.22 135.3 149.55c17.17 16.11 42.36 16.11 59.53 0 12.51-14.71 14.07-36.61 4.69-53.11l-4.69-6.71-64.94-71.78h206.6c22.73-1.86 40.37-22.67 40.59-47.85-0.51-22.06-15.02-40.24-34.08-44.12l-6.51-0.75H712.7l64.94-71.78c15.69-17.34 15.69-45.47 0-62.81-13.96-15.43-35.61-17.14-51.27-5.15zM422.27 575.5c23.76 0 46.55-9.44 63.36-26.24a89.57 89.57 0 0 0 25.8-54.5l0.44-8.86v-268.8c0-23.76-9.44-46.55-26.24-63.36a89.57 89.57 0 0 0-54.5-25.8l-8.86-0.44h-89.6v-112c0-17.67 14.33-32 32-32h448c26.51 0 48-21.49 48-48s-21.49-48-48-48h-512c-35.35 0-64 28.65-64 64v176h-83.2c-20.79 0-40.84 7.23-56.78 20.29l-6.57 5.95a89.57 89.57 0 0 0-25.8 54.5l-0.44 8.86V485.9c0 23.76 9.44 46.55 26.24 63.36a89.57 89.57 0 0 0 54.5 25.8l8.86 0.44h268.79z"  horiz-adv-x="1024" />
      
      <glyph glyph-name="a-06_abortCronjobAction" unicode="&#59015;" d="M197.25 630.37l-6.05-7.84C74.18 465.87 86.83 242.98000000000002 229.16 100.65999999999997s365.22-154.98 521.87-37.95l7.8 6.09-561.58 561.57z m-35.97 103.86c193.7 193.7 507.75 193.7 701.45 0 128.38-128.38 175-314.2 126.62-485.77-7.2-25.51-33.71-40.37-59.23-33.17-25.51 7.2-40.37 33.71-33.17 59.23 39.04 138.45 1.46 288.26-102.11 391.83C652.52 808.67 429.63 821.3199999999999 272.98 704.3l-7.84-6.05 597.59-597.59c17.04-17.04 18.59-43.71 4.65-62.5l-4.65-5.38c-193.7-193.7-507.75-193.7-701.45 0s-193.71 507.74 0 701.45z"  horiz-adv-x="1024" />
      
      <glyph glyph-name="a-07_catalogSynchronization" unicode="&#59016;" d="M741.97 678.37c26.51 0 48-21.49 48-48 0-24.3-18.06-44.38-41.49-47.56l-6.51-0.44H250c-26.51 0-48 21.49-48 48 0 24.3 18.06 44.38 41.49 47.56l6.51 0.44h491.97z m0-192c26.51 0 48-21.49 48-48 0-24.3-18.06-44.38-41.49-47.56l-6.51-0.44H250c-26.51 0-48 21.49-48 48 0 24.3 18.06 44.38 41.49 47.56l6.51 0.44h491.97z m97.4-148.45l24.48-167.84H726.62l32.23 49.67c-48.03 30.29-100.75 15.06-121.86 0s-38.87-47.17-38.87-90.94v-15.14h-90.96c-9.03 77.6 32.75 164.32 106.14 196.73l10.68 4.34c54.07 19.08 100.78 13.98 166.67-18.69l13.78-7.91 34.94 49.78z m87.31-210.42c9.03-77.6-32.75-164.32-106.14-196.73l-10.68-4.34c-54.07-19.08-100.78-13.98-166.66 18.69l-13.78 7.91-34.94-49.78L570 71.09000000000003h137.23L675 21.41999999999996c48.03-30.29 100.75-15.06 121.86 0s38.87 47.17 38.87 90.94V127.5h90.95z m-21.13 752c53.02 0 96-42.98 96-96v-400c0-26.51-21.49-48-48-48-24.3 0-44.38 18.06-47.56 41.49l-0.44 6.51-0.05 368c-0.01 17.67-14.33 32-32 32H138c-17.67 0-32-14.33-32-32v-736c0-17.67 14.33-32 32-32h304c24.3 0 44.38-18.06 47.56-41.49l0.44-6.51c0-24.3-18.06-44.38-41.49-47.56l-6.51-0.44H106c-53.02 0-96 42.98-96 96v800c0 53.02 42.98 96 96 96h799.55z"  horiz-adv-x="1024" />
      
      <glyph glyph-name="a-08_catalogVersionDiffAction" unicode="&#59017;" d="M747.84 614.37c26.51 0 48-21.49 48-48 0-24.3-18.06-44.38-41.49-47.56l-6.51-0.44H255.88c-26.51 0-48 21.49-48 48 0 24.3 18.06 44.38 41.49 47.56l6.51 0.44h491.96z m0-192c26.51 0 48-21.49 48-48 0-24.3-18.06-44.38-41.49-47.56l-6.51-0.44H255.88c-26.51 0-48 21.49-48 48 0 24.3 18.06 44.38 41.49 47.56l6.51 0.44h491.96z m-320-192c26.51 0 48-21.49 48-48 0-24.3-18.06-44.38-41.49-47.56l-6.51-0.44H255.88c-26.51 0-48 21.49-48 48 0 24.3 18.06 44.38 41.49 47.56l6.51 0.44h171.96z m532.04-38.87c35.35 0 64-28.65 64-64s-28.65-64-64-64-64 28.65-64 64 28.65 64 64 64z m-192 0c35.35 0 64-28.65 64-64s-28.65-64-64-64-64 28.65-64 64 28.65 64 64 64z m-192 0c35.35 0 64-28.65 64-64s-28.65-64-64-64-64 28.65-64 64 28.65 64 64 64z m335.54 688c53.02 0 96-42.98 96-96v-400c0-26.51-21.49-48-48-48-24.3 0-44.38 18.06-47.56 41.49l-0.44 6.51-0.05 368c-0.01 17.67-14.33 32-32 32H143.88c-17.67 0-32-14.33-32-32v-736c0-17.67 14.33-32 32-32h304c24.3 0 44.38-18.06 47.56-41.49l0.44-6.51c0-24.3-18.06-44.38-41.49-47.56l-6.51-0.44h-336c-53.02 0-96 42.98-96 96v800c0 53.02 42.98 96 96 96h799.54z"  horiz-adv-x="1024" />
      
      <glyph glyph-name="a-09_catalogVersionReportAction" unicode="&#59018;" d="M747.97 614.37c26.51 0 48-21.49 48-48 0-24.3-18.06-44.38-41.49-47.56l-6.51-0.44H256c-26.51 0-48 21.49-48 48 0 24.3 18.06 44.38 41.49 47.56l6.51 0.44h491.97z m0-192c26.51 0 48-21.49 48-48 0-24.3-18.06-44.38-41.49-47.56l-6.51-0.44H256c-26.51 0-48 21.49-48 48 0 24.3 18.06 44.38 41.49 47.56l6.51 0.44h491.97z m-320-192c26.51 0 48-21.49 48-48 0-24.3-18.06-44.38-41.49-47.56l-6.51-0.44H256c-26.51 0-48 21.49-48 48 0 24.3 18.06 44.38 41.49 47.56l6.51 0.44h171.97z m442.88-20.5L736 82.12v-50.56h51.07l128.9 128.9-45.12 49.41z m21.04 71.11l4.26-3.9 87.73-96.05c10.1-11.05 11.02-27.35 2.99-39.35l-3.99-4.85L832.3-13.75c-10-10-22.97-16.35-36.84-18.19l-8.41-0.55H704c-15.71 0-28.78 11.32-31.48 26.25l-0.52 5.74v82.54c0 15.06 5.31 29.55 14.86 41l5.12 5.46 158.96 150.64c11.6 10.58 28.89 11.04 40.95 1.84zM911.55 879.5c53.02 0 96-42.98 96-96v-400c0-26.51-21.49-48-48-48-24.3 0-44.38 18.06-47.56 41.49l-0.44 6.51-0.05 368c-0.01 17.67-14.33 32-32 32H144c-17.67 0-32-14.33-32-32v-736c0-17.67 14.33-32 32-32h304c24.3 0 44.38-18.06 47.56-41.49l0.44-6.51c0-24.3-18.06-44.38-41.49-47.56l-6.51-0.44H112c-53.02 0-96 42.98-96 96v800c0 53.02 42.98 96 96 96h799.55z"  horiz-adv-x="1024" />
      
      <glyph glyph-name="a-10_deleteCronJobLogsAction" unicode="&#59019;" d="M363.97 614.37c26.51 0 48-21.49 48-48 0-24.3-18.06-44.38-41.49-47.56l-6.51-0.44H256c-26.51 0-48 21.49-48 48 0 24.3 18.06 44.38 41.49 47.56l6.51 0.44h107.97z m448 0c26.51 0 48-21.49 48-48 0-24.3-18.06-44.38-41.49-47.56l-6.51-0.44H512c-26.51 0-48 21.49-48 48 0 24.3 18.06 44.38 41.49 47.56l6.51 0.44h299.97z m-448-192c26.51 0 48-21.49 48-48 0-24.3-18.06-44.38-41.49-47.56l-6.51-0.44H256c-26.51 0-48 21.49-48 48 0 24.3 18.06 44.38 41.49 47.56l6.51 0.44h107.97z m0-192c26.51 0 48-21.49 48-48 0-24.3-18.06-44.38-41.49-47.56l-6.51-0.44H256c-26.51 0-48 21.49-48 48 0 24.3 18.06 44.38 41.49 47.56l6.51 0.44h107.97zM784 223.5H624v-240h160v240z m-16 160c32.82 0 59.87-24.71 63.57-56.54l0.43-7.46h80c26.51 0 48-21.49 48-48s-21.49-48-48-48h-32v-272c0-35.35-28.65-64-64-64H592c-35.35 0-64 28.65-64 64v272h-32c-26.51 0-48 21.49-48 48s21.49 48 48 48h80c0 35.35 28.65 64 64 64h128z m143.55 496c53.02 0 96-42.98 96-96v-336c0-26.51-21.49-48-48-48-24.3 0-44.38 18.06-47.56 41.49l-0.44 6.51-0.05 304c-0.01 17.67-14.33 31.99-32.01 32H144c-17.67 0-32-14.33-32-32v-736c0-17.67 14.33-32 32-32h304c24.3 0 44.38-18.06 47.56-41.49l0.44-6.51c0-24.3-18.06-44.38-41.49-47.56l-6.51-0.44H112c-53.02 0-96 42.98-96 96v800c0 53.02 42.98 96 96 96h799.55z"  horiz-adv-x="1024" />
      
      <glyph glyph-name="a-11_executeCatalogVersionSynchronizationJob" unicode="&#59020;" d="M505.73 623.5c128.27 0 233.04-100.63 239.67-227.25l0.33-12.75-176 64c3.28 7.19 11.21 21.36 23.78 42.52-26.58 23.88-46.85 37.48-87.78 37.48-58.55 0-92.73-43.44-132.62-93.63-17.42-21.92-55.58-26.3-76.67 0-21.09 26.3 2.05 73.71 18.48 95.22 43.85 57.39 113.01 94.41 190.81 94.41zM288 367.5l176-64c-3.28-7.19-11.21-21.36-23.78-42.52C466.8 237.10000000000002 487.07 223.5 528 223.5c58.55 0 92.73 43.44 132.62 93.63 17.42 21.92 55.58 26.3 76.67 0 21.09-26.3-2.05-73.71-18.48-95.22C674.95 164.51999999999998 605.8 127.5 528 127.5c-128.27 0-233.04 100.63-239.67 227.25L288 367.5z m224 416c-220.91 0-400-179.09-400-400s179.09-400 400-400 400 179.09 400 400-179.09 400-400 400z m0 96c273.93 0 496-222.07 496-496s-222.07-496-496-496-496 222.07-496 496 222.07 496 496 496z"  horiz-adv-x="1024" />
      
      <glyph glyph-name="a-12_findDuplicateIDsAction" unicode="&#59021;" d="M642.79 783.12h-454.4c-7.07 0-12.8-5.73-12.8-12.8v-454.4c0-7.07 5.73-12.8 12.8-12.8h83.2v288c0 53.02 42.98 96 96 96h288v83.2c0 7.07-5.73 12.8-12.8 12.8z m60.8-432c-53.02 0-96-42.98-96-96s42.98-96 96-96 96 42.98 96 96-42.98 96-96 96z m-48 528c53.02 0 96-42.98 96-96v-96h96c53.02 0 96-42.98 96-96V490.4c0-26.51-21.49-48-48-48s-48 21.49-48 48v87.92c0 7.07-5.73 12.8-12.8 12.8h-454.4c-7.07 0-12.8-5.73-12.8-12.8v-454.4c0-7.07 5.73-12.8 12.8-12.8h100.66c26.51 0 48-21.49 48-48s-21.49-48-48-48H367.59c-53.02 0-96 42.98-96 96v96h-96c-53.02 0-96 42.98-96 96v480c0 53.02 42.98 96 96 96h480z m48-432c106.04 0 192-85.96 192-192 0-35.58-9.68-68.89-26.54-97.46l124.48-124.6c18.74-18.75 18.74-49.14 0-67.88-17.04-17.04-43.71-18.59-62.5-4.65l-5.38 4.65-124.6 124.48c-28.57-16.86-61.89-26.54-97.46-26.54-106.04 0-192 85.96-192 192s85.96 192 192 192z"  horiz-adv-x="1024" />
      
      <glyph glyph-name="a-13_recalculateOrderTotalsAction" unicode="&#59022;" d="M592.38 703.5c26.51 0 48-21.49 48-48s-21.49-48-48-48h-352c-26.51 0-48 21.49-48 48s21.49 48 48 48h352z m3.2-195.2c24.74 0 44.8-20.06 44.8-44.8s-20.06-44.8-44.8-44.8-44.8 20.06-44.8 44.8 20.05 44.8 44.8 44.8z m-179.2 0c24.74 0 44.8-20.06 44.8-44.8s-20.06-44.8-44.8-44.8-44.8 20.06-44.8 44.8 20.05 44.8 44.8 44.8z m-179.2 0c24.74 0 44.8-20.06 44.8-44.8s-20.06-44.8-44.8-44.8-44.8 20.06-44.8 44.8 20.05 44.8 44.8 44.8z m179.2-192c24.74 0 44.8-20.06 44.8-44.8s-20.06-44.8-44.8-44.8-44.8 20.06-44.8 44.8 20.05 44.8 44.8 44.8z m-179.2 0c24.74 0 44.8-20.06 44.8-44.8s-20.06-44.8-44.8-44.8-44.8 20.06-44.8 44.8 20.05 44.8 44.8 44.8z m608.56 21.62l24.48-167.84H732.99l32.23 49.67c-48.03 30.29-100.75 15.06-121.86 0s-38.87-47.17-38.87-90.94v-15.14h-90.96c-9.03 77.6 32.75 164.32 106.14 196.73l10.68 4.34c54.07 19.08 100.78 13.98 166.67-18.69l13.78-7.91 34.94 49.78zM416.38 124.29999999999995c24.74 0 44.8-20.06 44.8-44.8s-20.06-44.8-44.8-44.8-44.8 20.06-44.8 44.8 20.05 44.8 44.8 44.8z m-179.2 0c24.74 0 44.8-20.06 44.8-44.8s-20.06-44.8-44.8-44.8-44.8 20.06-44.8 44.8 20.05 44.8 44.8 44.8z m695.88 3.2c9.03-77.6-32.75-164.32-106.14-196.73l-10.68-4.34c-54.07-19.08-100.78-13.98-166.66 18.69l-13.78 7.91-34.94-49.78-24.48 167.84H713.6l-32.23-49.67c48.03-30.29 100.75-15.06 121.86 0s38.87 47.17 38.87 90.94V127.5h90.96z m-212.68 752c53.02 0 96-42.98 96-96v-272c0-26.51-21.49-48-48-48-24.3 0-44.38 18.06-47.56 41.49l-0.44 6.51V770.7c0 7.07-5.73 12.8-12.8 12.8h-582.4c-7.07 0-12.8-5.73-12.8-12.8v-774.4c0-7.07 5.73-12.8 12.8-12.8h323.2c24.3 0 44.38-18.06 47.56-41.49l0.44-6.51c0-24.3-18.06-44.38-41.49-47.56l-6.51-0.44h-336c-53.02 0-96 42.98-96 96v800c0 53.02 42.98 96 96 96h608z"  horiz-adv-x="1024" />
      
      <glyph glyph-name="a-14_repairBusinessProcess" unicode="&#59023;" d="M608 479.5l-32.65-13.95-31.3-13.82-29.84-13.81-20.9-10.13-18.4-9.37-22.31-12.25-10.93-6.7c-4.62-3.02-7.93-5.51-9.78-7.38-22.12-24.87-21.01-62.65 2.54-86.18 23.55-23.52 61.37-24.64 86.26-2.54 1.33 1.33 2.97 3.4 4.89 6.14l6.55 10.22 8 13.96 9.24 17.36 10.27 20.43 13.97 29.39 20.53 45.93L608 479.5z m159.94 159.94l-40.28-107.57-30.8-78.76c-14.46-35.55-29.6-70.82-45.43-105.78l-6.88-14.73-13.03-26.62c-16.77-33-31.29-56.09-45.23-69.98-61.47-59.87-159.64-59.24-220.33 1.42s-61.36 158.83-1.5 220.31c13.94 14 37.05 28.49 70.06 45.24l26.63 13.02c4.75 2.25 9.66 4.54 14.73 6.88l40.42 18.09c31.57 13.63 65.29 27.49 98.94 40.81l22.02 8.55 130.68 49.12zM512 879.5c72.35 0 142.61-15.53 206.99-45.14 24.09-11.07 34.63-39.58 23.56-63.66s-39.58-34.63-63.66-23.56C627.02 770.99 570.44 783.5 512 783.5c-220.91 0-400-179.09-400-400s179.09-400 400-400 400 179.09 400 400c0 72.96-19.52 142.94-55.98 204.22-13.56 22.78-6.08 52.24 16.7 65.79 22.78 13.56 52.24 6.08 65.8-16.7C983.76 560.78 1008 473.86 1008 383.5c0-273.93-222.07-496-496-496S16 109.57000000000005 16 383.5s222.07 496 496 496z"  horiz-adv-x="1024" />
      
      <glyph glyph-name="a-15_removeList" unicode="&#59024;" d="M912 767.58c26.51 0 48-21.49 48-48s-21.49-48-48-48H112c-26.51 0-48 21.49-48 48s21.49 48 48 48h800z m0-320c26.51 0 48-21.49 48-48s-21.49-48-48-48H112c-26.51 0-48 21.49-48 48s21.49 48 48 48h800z m-448-320c26.51 0 48-21.49 48-48s-21.49-48-48-48H112c-26.51 0-48 21.49-48 48s21.49 48 48 48h352z m236.12 87.77L768 147.49l67.88 67.86c18.74 18.75 49.14 18.75 67.88 0 18.74-18.75 18.74-49.14 0-67.88l-67.86-67.88 67.86-67.88c18.74-18.75 18.74-49.14 0-67.88-18.74-18.75-49.14-18.75-67.88 0L768 11.67999999999995l-67.88-67.86c-18.74-18.75-49.14-18.75-67.88 0-18.75 18.75-18.75 49.14 0 67.88l67.86 67.88-67.86 67.88c-18.75 18.75-18.75 49.14 0 67.88 18.74 18.75 49.13 18.75 67.88 0.01z"  horiz-adv-x="1024" />
      
      <glyph glyph-name="a-16_listViewCSVExport" unicode="&#59025;" d="M689.76 783.5h-65.41v-147.2c0-7.07 5.73-12.8 12.8-12.8h211.2v54.27L689.76 783.5z m-172.1-313l1.96-10.91c2.55-15.25 4.87-33.33 6.95-54.25 2.6-26.15 3.91-54.53 3.91-85.16l-0.01 1.81 0.26 20.03c0.33 14.22 0.98 27.76 1.95 40.62l1.71 18.79c2.6 24.38 5.26 47.4 7.97 69.06h53.44l-25.62-215H493.6l-29.06 215h53.12z m-122.81 0c12.08 0 21.61-0.73 28.59-2.19s12.76-4.69 17.34-9.69c4.58-5 7.6-11.35 9.06-19.06 0.67-3.67 1.07-9.8 1.2-18.4l0.05-9.73h-46.56l-0.02 13.5c-0.04 3.4-0.14 5.57-0.29 6.5-0.83 4.79-3.44 7.19-7.81 7.19-6.04 0-9.06-5.62-9.06-16.88 0-8.75 1.41-15 4.22-18.75 2.81-3.75 11.51-10.31 26.09-19.69 16.04-10.21 26.56-21.04 31.56-32.5 3.96-8.96 5.94-23.02 5.94-42.19 0-12.29-0.89-21.09-2.66-26.41-1.77-5.31-4.74-10.26-8.91-14.84s-10-7.86-17.5-9.84c-7.5-1.98-16.46-2.97-26.88-2.97-11.25 0-20.52 1.04-27.81 3.12-7.29 2.08-13.07 5.62-17.34 10.62-4.27 5-7.4 10.89-9.37 17.66-1.98 6.77-2.97 17.55-2.97 32.34v8.12h46.88v-20l0.09-5.04c0.18-4.61 0.62-7.93 1.32-9.96 0.94-2.71 3.39-4.06 7.34-4.06 6.67 0 10 5.83 10 17.5 0 7.5-0.42 13.12-1.25 16.88s-3.33 7.71-7.5 11.88c-19.37 13.96-32.71 24.38-40 31.25-12.29 11.46-18.44 28.33-18.44 50.62 0 7.92 0.47 14.79 1.41 20.62s2.86 11.35 5.78 16.56c4.17 6.88 10 11.56 17.5 14.06 7.5 2.53 17.5 3.78 30 3.78z m-131.25 0.94c12.71 0 22.81-1.09 30.31-3.28 7.5-2.19 14.06-6.46 19.69-12.81 5.63-6.35 9.48-14.74 11.56-25.16 1.46-7.5 2.19-18.44 2.19-32.81v-11.25h-53.12v33.44l-0.02 4.2c-0.04 3.71-0.14 5.96-0.29 6.74-1.04 5.21-4.06 7.81-9.06 7.81-7.08 0-10.62-4.48-10.62-13.44v-120.94l0.29-5.06c0.95-7.67 4.3-11.5 10.03-11.5 4.37 0 7.08 1.77 8.12 5.31 1.04 3.54 1.56 10.73 1.56 21.56v27.19h53.12V323l-0.16-8.28c-0.31-7.81-1.09-14.22-2.34-19.22-5.83-27.29-26.04-40.94-60.62-40.94-12.5 0-22.5 0.83-30 2.5s-14.17 5.42-20 11.25c-7.08 6.88-11.51 14.79-13.28 23.75-1.77 8.96-2.66 22.29-2.66 40v77.81l0.34 8.76c1.36 16.82 6.82 29.48 16.38 37.96 11.13 9.9 27.33 14.85 48.58 14.85z m512.7-153.6l4.78-2.74L949.91 181c12.38-9.13 13.76-27.9 4.05-39.17L949.8 138 780.96 3.8999999999999773c-13.93-10.33-32.16-1.38-35.67 15.48l-0.6 5.9V109.60000000000002l-3.54-0.54-3.54-0.18H430.68c-23.11 0-46.33 25.25-46.33 50.62 0 22.95 19.1 46.01 40.02 50.01l6.31 0.61h307.05l3.54-0.18 3.54-0.54v84.32c0 18.48 16.83 30.31 31.49 24.12zM699.5 879.5c12.63 0 24.99-3.74 35.5-10.75l180.84-120.56a64.009 64.009 0 0 0 28.5-53.25V383.5c0-26.51-21.49-48-48-48-24.3 0-44.38 18.06-47.56 41.49l-0.44 6.51v144h-256c-35.35 0-64 28.65-64 64v192h-384c-17.67 0-32-14.33-32-32v-736c0-17.67 14.33-32 32-32h304c24.3 0 44.38-18.06 47.56-41.49l0.44-6.51c0-24.3-18.06-44.38-41.49-47.56l-6.51-0.44h-336c-53.02 0-96 42.98-96 96v800c0 53.02 42.98 96 96 96H699.5z"  horiz-adv-x="1024" />
      
      <glyph glyph-name="a-17_runGCAction" unicode="&#59027;" d="M448.543571 703.691365c12.595326 0 22.611609-1.289521 30.048849-3.868565 7.43724-2.579043 13.944825-7.617173 19.522755-15.114391 5.57793-7.497218 9.396513-17.393545 11.465745-29.678986 1.15957-7.077374 1.849314-16.753783 2.079228-29.029228l0.089967-22.961479h-52.670454l-0.239911 51.760792c-1.109588 6.747496-4.098479 9.826354-9.056639 9.826353-5.84783 0-9.266561-3.668639-10.236202-11.015912l-0.289892-4.8482v-142.707043l0.209922-5.188074c0.829692-9.576446 4.168453-14.354673 10.016283-14.354674 4.33839 0 7.027392 2.089225 8.05701 6.267675 0.409848 1.669381 0.739725 4.028505 0.989633 7.077373l0.499814 11.205842 0.059978 39.23544h52.670454l-0.149944-31.5283c-0.309885-9.21658-1.079599-16.773775-2.319139-22.681583-5.787852-32.208048-25.820418-48.302075-60.107695-48.302076-12.3954 0-22.301724 0.979636-29.738964 2.948906-7.43724 1.969269-14.044788 6.38763-19.83264 13.275074-7.027392 8.116988-11.415764 17.453523-13.165115 28.019602-1.399481 8.456862-2.249165 20.212499-2.529061 35.276909l-0.109959 103.731506 0.339874 10.336164c1.349499 19.852633 6.767489 34.777094 16.233975 44.793377 11.035905 11.685664 27.089947 17.523497 48.162128 17.523498z m-194.557801 0c20.812277 0 36.986275-5.667897 48.521994-17.013687 9.886331-9.716394 15.544232-23.521271 16.953708-41.384642l0.34987-9.276558v-26.260255h-51.920732V632.6977099999999l-0.159941 7.937054c-0.329878 7.377262-1.149573 13.045159-2.459087 17.023683-1.749351 5.298034-4.998145 7.947051-9.736387 7.947051-3.708624 0-6.027763-2.219176-6.957418-6.657529l-0.429841-2.469084-0.61977-6.407622-0.34987-13.315059V505.844784l0.249907-5.877819c0.829692-8.906695 3.738613-13.355044 8.716765-13.355044 4.738242 0 8.236943 2.649017 10.506102 7.947051 1.699369 3.978524 2.758976 9.02665 3.188816 15.154377l0.209922 6.487592V546.5296860000001h-14.52461v39.195455h64.286144v-69.154337l-0.229914-9.626428c-0.929655-18.413167-4.668268-31.848181-11.205842-40.305043-9.886331-12.575333-28.329487-18.863-55.319471-18.863-12.565337 0-23.591245 2.219176-33.067729 6.657529-9.476483 4.438353-16.38392 11.585701-20.712314 21.45204-3.088854 6.657529-5.098108 13.804877-6.027763 21.452039l-0.959644 11.135868c-0.109959 2.019251-0.209922 4.108475-0.2699 6.27767l-0.149944 10.316172 0.039985 99.712997 0.119956 12.895214c0.099963 8.506843 0.769714 15.594213 2.009254 21.26211 2.888928 15.034421 9.526465 26.260255 19.932603 33.647514 10.396142 7.417248 23.74119 11.105879 40.015151 11.105879z m452.302153-387.156329l122.264629-96.414221c4.078486-3.358754 6.477596-8.516839 6.477596-13.984811 0.029989-5.407993-2.349128-10.546086-6.497589-14.004803l-122.244636-96.414221c-10.076261-7.997032-24.081064 0.109959-24.081063 13.954821V302.58021399999996c0 13.844862 13.934829 21.96185 24.081063 13.954822z m-69.914055 3.158828c8.466858 0 15.274332-7.637166 15.274332-17.11365v-198.836213c0-9.476483-6.857455-17.123646-15.274332-17.123645a15.344306 15.344306 0 0 0-10.975927 5.198071 17.173627 17.173627 0 0 0-4.298405 11.915578V302.58021399999996c0 9.476483 6.827466 17.113649 15.274332 17.11365z m67.305023 96.104336c-123.664109 0-223.916906-100.252797-223.916905-223.916906s100.252797-223.916906 223.916905-223.916906 223.916906 100.252797 223.916906 223.916906-100.252797 223.916906-223.916906 223.916906z m80.810012 463.827876c52.33058 0 95.014741-41.934438 95.944396-94.265019l2.579043-144.796267c0.459829-26.500166-20.64234-48.352057-47.142506-48.821882-24.290986-0.42984-44.683418 17.263594-48.272086 40.624924l-0.549796 6.497589-2.359125 132.23093c-0.119955 6.977411-5.817841 12.565337-12.795252 12.565337H124.693749c-7.067377 0-12.795252-5.727874-12.795252-12.795252v-774.112731c0-7.067377 5.727874-12.795252 12.795252-12.795252h259.103848c24.290986 0 44.363537-18.053301 47.542358-41.474609l0.439836-6.507585c0-24.290986-18.053301-44.363537-41.474609-47.542358l-6.507585-0.439836h-271.8991c-53.000332 0-95.964388 42.964056-95.964388 95.964388v799.703235c0 53.000332 42.964056 95.964388 95.964388 95.964388h672.590406z m-80.810012-367.863488c176.664441 0 319.881294-143.216853 319.881294-319.881294s-143.216853-319.881294-319.881294-319.881294-319.881294 143.216853-319.881294 319.881294 143.206857 319.881294 319.881294 319.881294z"  horiz-adv-x="1024" />
      
      <glyph glyph-name="a-18_mixleft" unicode="&#59028;" d="M864 431.5v304H368v-304h496z m0-96H368v-304h496v304z m-592 400H160v-704h112v704z m592 96c53.02 0 96-42.98 96-96v-704c0-53.02-42.98-96-96-96H160c-53.02 0-96 42.98-96 96v704c0 53.02 42.98 96 96 96h704z"  horiz-adv-x="1024" />
      
      <glyph glyph-name="a-19_mixright" unicode="&#59029;" d="M640 735.5H160v-304h480v304z m224 0H736v-704h128v704z m-704-704h480v304H160v-304z m704 800c53.02 0 96-42.98 96-96v-704c0-53.02-42.98-96-96-96H160c-53.02 0-96 42.98-96 96v704c0 53.02 42.98 96 96 96h704z"  horiz-adv-x="1024" />
      
      <glyph glyph-name="a-20_single" unicode="&#59030;" d="M864 735.5H160v-704h704v704z m96 0v-704c0-53.02-42.98-96-96-96H160c-53.02 0-96 42.98-96 96v704c0 53.02 42.98 96 96 96h704c53.02 0 96-42.98 96-96z"  horiz-adv-x="1024" />
      
      <glyph glyph-name="a-21_triple" unicode="&#59031;" d="M704 31.5h160v704H704v-704z m-288 704v-704h192v704H416z m-96 0H160v-704h160v704z m544 96c53.02 0 96-42.98 96-96v-704c0-53.02-42.98-96-96-96H160c-53.02 0-96 42.98-96 96v704c0 53.02 42.98 96 96 96h704z"  horiz-adv-x="1024" />
      
      <glyph glyph-name="a-22_twixe" unicode="&#59032;" d="M560 31.5h304v704H560v-704z m-400 704v-704h304v704H160z m704 96c53.02 0 96-42.98 96-96v-704c0-53.02-42.98-96-96-96H160c-53.02 0-96 42.98-96 96v704c0 53.02 42.98 96 96 96h704z"  horiz-adv-x="1024" />
      
      <glyph glyph-name="a-23_twixs" unicode="&#59033;" d="M864 735.5H160v-304h704v304z m0-400H160v-304h704v304z m0 496c53.02 0 96-42.98 96-96v-704c0-53.02-42.98-96-96-96H160c-53.02 0-96 42.98-96 96v704c0 53.02 42.98 96 96 96h704z"  horiz-adv-x="1024" />
      
      <glyph glyph-name="a-24_redeploy" unicode="&#59034;" d="M560 639.5c26.51 0 48-21.49 48-48s-21.49-48-48-48-48 21.49-48 48 21.49 48 48 48z m192 0c26.51 0 48-21.49 48-48s-21.49-48-48-48-48 21.49-48 48 21.49 48 48 48z m-352 0c26.51 0 48-21.49 48-48s-21.49-48-48-48H240c-26.51 0-48 21.49-48 48s21.49 48 48 48h160z m220.81-193.55c24.78-6.45 39.49-31.22 32.85-55.31l-4.65-16.84a237.709 237.709 0 0 0 78.71 13.3C856.01 387.1 960 286.01 960 161.29999999999995S856.01-64.5 727.73-64.5c-77.83-0.03-150.12 37.82-193.03 100.15l-8.14 12.81c-11.91 21.82-3.58 48.89 18.7 60.76 20.05 10.69 44.7 5.5 58.56-11.31l4.2-6.03c37.5-61.11 117.24-83.6 182.56-51.49 65.32 32.11 93.96 107.88 65.56 173.46-28.4 65.59-104.15 98.64-173.43 75.67l36.63-9.51c24.78-6.45 39.49-31.22 32.85-55.31-6.64-24.09-32.11-38.39-56.89-31.94l-134.62 35.07c-11.9 3.1-22.05 10.67-28.21 21.05-6.16 10.37-7.83 22.7-4.63 34.27L563.91 414c6.65 24.11 32.12 38.4 56.9 31.95zM864 831.5c53.02 0 96-42.98 96-96l0.04-304.49c-28.56 23.59-60.9 42.76-95.98 56.47L864 722.7c0 7.07-5.73 12.8-12.8 12.8H172.8c-7.07 0-12.8-5.73-12.8-12.8v-291.2l352.53-0.02c-32.55-26.78-60.21-59.28-81.44-95.98H160v-96l233.13-0.01c-5.97-25.7-9.13-52.48-9.13-79.99 0-5.37 0.12-10.71 0.36-16.02L160 143.5v-99.2c0-7.07 5.73-12.8 12.8-12.8l235.22-0.06c13.71-35.08 32.88-67.42 56.47-95.98L160-64.5c-53.02 0-96 42.98-96 96v704c0 53.02 42.98 96 96 96h704z"  horiz-adv-x="1024" />
      
      <glyph glyph-name="a-25_publishrule" unicode="&#59035;" d="M701.02 501.19c15.96-18.06 15.85-44.77 0.78-62.67l-4.97-5.09-169.71-149.9c-19.87-17.55-50.2-15.67-67.75 4.2-15.96 18.06-15.85 44.77-0.78 62.67l4.97 5.09L633.27 505.4c19.87 17.54 50.2 15.66 67.75-4.21zM839.1 688.78L232.83 411.92l134.62-77.34-15.9-206.18 176.47 105.44 246.25-139.11 64.83 594.05z m36.28 116.45l8.6-0.36c32.63-3.56 56.84-31.05 57.06-63.1l-0.38-7.47-76.17-698.26a63.995 63.995 0 0 0-7.9-24.54c-16.14-28.58-50.96-39.98-80.49-27.54l-6.71 3.3-239.98 135.57-181.64-108.62a63.908 63.908 0 0 0-37.75-8.88c-32.72 2.52-57.8 29.22-59.05 61.24l0.14 7.47 15.96 207.51-135.99 78.12a64.001 64.001 0 0 0-26.34 28.91c-13.63 29.86-2.4 64.73 25.02 81.31l6.61 3.49L850.46 799.47a63.933 63.933 0 0 0 24.92 5.76z"  horiz-adv-x="1024" />
      
      <glyph glyph-name="a-26_undeploy" unicode="&#59036;" d="M560 639.5c26.51 0 48-21.49 48-48s-21.49-48-48-48-48 21.49-48 48 21.49 48 48 48z m192 0c26.51 0 48-21.49 48-48s-21.49-48-48-48-48 21.49-48 48 21.49 48 48 48z m-352 0c26.51 0 48-21.49 48-48s-21.49-48-48-48H240c-26.51 0-48 21.49-48 48s21.49 48 48 48h160z m236.21-300.19l86.99-86.96 86.99 86.96c24.02 24.02 62.97 24.02 86.99 0 24.02-24.02 24.02-62.97 0-86.99l-86.96-86.99 86.96-86.99c24.02-24.02 24.02-62.97 0-86.99-24.02-24.02-62.97-24.02-86.99 0L723.2 78.29999999999995l-86.99-86.96c-24.02-24.02-62.97-24.02-86.99 0-24.02 24.02-24.02 62.97 0 86.99l86.96 86.99-86.96 86.99c-24.02 24.02-24.02 62.97 0 86.99s62.97 24.03 86.99 0.01zM864 831.5c53.02 0 96-42.98 96-96l0.04-304.49c-28.56 23.59-60.9 42.76-95.98 56.47L864 722.7c0 7.07-5.73 12.8-12.8 12.8H172.8c-7.07 0-12.8-5.73-12.8-12.8v-291.2l352.53-0.02c-32.55-26.78-60.21-59.28-81.44-95.98H160v-96l233.13-0.01c-5.97-25.7-9.13-52.48-9.13-79.99 0-5.37 0.12-10.71 0.36-16.02L160 143.5v-99.2c0-7.07 5.73-12.8 12.8-12.8l235.22-0.06c13.71-35.08 32.88-67.42 56.47-95.98L160-64.5c-53.02 0-96 42.98-96 96v704c0 53.02 42.98 96 96 96h704z"  horiz-adv-x="1024" />
      
      <glyph glyph-name="a-27_Richtexteditor_down" unicode="&#59037;" d="M614.79 824.71c22.22-12.7 30.96-39.37 21.37-62.01l-3.07-6.06L410.82 383.5l222.25-373.13c14.14-23.75 5.95-54.23-18.29-68.08-22.22-12.7-50.23-7.02-65.63 12.31l-3.88 5.61-193.26 324.54L158.74-39.799999999999955l-3.88-5.61c-15.41-19.33-43.41-25.01-65.63-12.31-22.22 12.7-30.96 39.37-21.37 62.01l3.07 6.06 222.2 373.15L70.94 756.63c-14.14 23.75-5.95 54.23 18.29 68.08 22.22 12.7 50.23 7.02 65.63-12.31l3.88-5.61 193.27-324.48L545.28 806.8l3.88 5.61c15.4 19.32 43.4 25 65.63 12.3zM833.1 319.5c40.41 0 72.57-11.2 96.46-33.6 23.9-22.4 35.84-52.05 35.84-88.95 0-28.29-8.43-53.41-25.3-75.38-8.86-11.67-22.26-24.4-40.23-38.21l-14.33-10.55-30.05-21.35-27.44-20.05-11.18-8.94a84.104 84.104 0 0 1-12.42-13.24l-5.11-7.58h133.75c18.27 0 33.08-14.81 33.08-33.08 0-15.98-11.34-29.32-26.41-32.4l-6.67-0.67h-228.6c0.7 27.41 6.59 52.45 17.66 75.11 9.38 22.29 29.92 45.73 61.63 70.31l26.68 19.56 30.35 22.93 14.51 11.99 7.13 6.53 2.8 2.83c15.64 16.69 23.46 34.97 23.46 54.82 0 16.16-4.48 29.61-13.44 40.32-8.96 10.72-21.79 16.08-38.48 16.08-22.84 0-38.39-8.52-46.65-25.56l-1.55-4.84-3.77-22.31c-1.52-7.87-3.66-15.06-7.52-18.15l-4.46-1.61h-42.33c-22.96 0-21.66 26.66-15.14 50.18l3.96 12.34c0.71 1.95 1.43 3.82 2.15 5.6l4.88 10.67c20.03 38.14 55.61 57.2 106.74 57.2z"  horiz-adv-x="1024" />
      
      <glyph glyph-name="a-28_Richtexteditor_up" unicode="&#59038;" d="M833.1 831.5c40.41 0 72.57-11.2 96.46-33.6 23.9-22.4 35.84-52.05 35.84-88.95 0-28.29-8.43-53.41-25.3-75.38-8.86-11.67-22.26-24.4-40.23-38.2l-14.33-10.55-30.05-21.35-27.44-20.05-11.18-8.94a84.104 84.104 0 0 1-12.42-13.24l-5.11-7.58h133.75c18.27 0 33.08-14.81 33.08-33.08 0-15.98-11.34-29.32-26.41-32.4l-6.67-0.67h-228.6c0.7 27.41 6.59 52.45 17.66 75.11 9.38 22.29 29.92 45.73 61.63 70.31l26.68 19.56 30.35 22.93 14.51 11.99 7.13 6.53 2.8 2.83c15.64 16.69 23.46 34.97 23.46 54.82 0 16.16-4.48 29.61-13.44 40.32-8.96 10.72-21.79 16.08-38.48 16.08-22.84 0-38.39-8.52-46.65-25.56l-1.55-4.84-3.77-22.31c-1.52-7.87-3.66-15.06-7.52-18.15l-4.46-1.61h-42.33c-22.96 0-21.66 26.66-15.14 50.18l3.96 12.34c0.71 1.95 1.43 3.82 2.15 5.6l4.88 10.67C746.39 812.44 781.97 831.5 833.1 831.5z m-218.31-6.79c22.22-12.7 30.96-39.37 21.37-62.01l-3.07-6.06L410.82 383.5l222.25-373.13c14.14-23.75 5.95-54.23-18.29-68.08-22.22-12.7-50.23-7.02-65.63 12.31l-3.88 5.61-193.26 324.54L158.74-39.799999999999955l-3.88-5.61c-15.41-19.33-43.41-25.01-65.63-12.31-22.22 12.7-30.96 39.37-21.37 62.01l3.07 6.06 222.2 373.15L70.94 756.63c-14.14 23.75-5.95 54.23 18.29 68.08 22.22 12.7 50.23 7.02 65.63-12.31l3.88-5.61 193.27-324.48L545.28 806.8l3.88 5.61c15.4 19.32 43.4 25 65.63 12.3z"  horiz-adv-x="1024" />
      
      <glyph glyph-name="a-29_specialcharacters" unicode="&#59039;" d="M439.75 31.480000000000018v64.75c-136.12 75.38-203.44 191.81-201.94 349.31 0 83.63 23.44 153 70.31 208.12 46.12 54.75 114.19 82.5 204.19 83.25 90.38-0.75 158.63-28.5 204.75-83.25 46.12-55.13 69.19-124.5 69.19-208.12 1.5-157.5-65.62-273.94-201.38-349.31v-64.75c0-17.67 14.33-32 32-32h238.56c26.72 0 48.38 21.66 48.38 48.38s-21.66 48.38-48.38 48.38H709.19v2.25c127.5 78.38 190.13 194.44 187.88 348.19-6.38 252.37-134.62 381.38-384.75 387-250.5-5.62-378.75-134.63-384.75-387-2.63-153.75 59.81-269.81 187.31-348.19v-2.25H168.63c-26.72 0-48.38-21.66-48.38-48.38s21.66-48.38 48.38-48.38h239.12c17.67 0 32 14.33 32 32z"  horiz-adv-x="1024" />
      
      <glyph glyph-name="a-30_manualrefundaction" unicode="&#59040;" d="M809.66 723.03c-16.64-1.92-30.08-6.4-39.68-12.8-17.28-10.24-25.6-27.52-25.6-51.2 0-22.29 18.28-41.36 54.85-57.2l10.43-4.24V723.03z m-425.6-115.2c-53.02 0-96-42.98-96-96s42.98-96 96-96 96 42.98 96 96-42.98 96-96 96z m467.84-98.56v-134.4c17.92 2.56 33.92 7.68 46.72 16 17.92 11.52 26.88 28.16 26.88 49.28 0 26.4-18.82 47.42-55.97 62.57l-14.11 5.51-3.52 1.04zM384.06 703.83c106.04 0 192-85.96 192-192s-85.96-192-192-192-192 85.96-192 192 85.96 192 192 192zM851.9 837.59v-52.48c38.4-2.56 69.12-13.44 91.52-31.36 23.62-18.43 38.94-47.75 46.43-87.49l2.21-13.63H919.1c-3.84 26.88-13.44 45.44-28.8 56.32-7.68 5.63-17.41 9.63-29.18 11.98l-9.22 1.46v-140.8l61.53-22.84 16.94-6.79 3.45-1.73c44.16-24.96 66.56-60.8 66.56-107.52 0-45.44-17.28-79.36-51.84-102.4-22.4-14.56-49.7-23.73-82.33-27.51l-14.31-1.29v-56.32h-42.24v56.32c-43.52 3.2-76.8 15.36-99.84 37.12-24.19 23.04-39.05 56.97-44.58 101.78l-1.5 15.34h74.24c2.56-33.28 10.88-57.6 25.6-71.68 9.07-8.53 21.24-14.4 36.53-17.6l9.55-1.6V524.63l-73.6 26.88c-44.8 24.32-66.56 60.16-66.56 107.52 0 42.24 16 74.24 48.64 96.64 21.28 15.12 46.97 24.36 77.93 28.15l13.59 1.29V837.59h42.24z m72.32-661.76c26.51 0 48-21.49 48-48 0-24.3-18.06-44.38-41.49-47.56l-6.51-0.44h-92.16c-26.51 0-48 21.49-48 48 0 24.3 18.06 44.38 41.49 47.56l6.51 0.44h92.16z m-540.06 31.36c-160.03-0.32-245.49-62.69-266.76-197.35l-1.97-14.19-1.25-11.76h539.71l-1.18 12.01c-16.28 135.5-92.15 202.54-237 210.48l-15.78 0.63-15.77 0.18z m540.06-159.36c26.51 0 48-21.49 48-48 0-24.3-18.06-44.38-41.49-47.56l-6.51-0.44h-92.16c-26.51 0-48 21.49-48 48 0 24.3 18.06 44.38 41.49 47.56l6.51 0.44h92.16zM383.96 303.19000000000005l16.56-0.17c223.63-5.23 345.51-126.74 351.32-350.23l0.22-16.95v-48h-736v48c0 238.99 128.14 366.87 367.9 367.35z"  horiz-adv-x="1024" />
      
      <glyph glyph-name="a-31_confirm_cancel_order" unicode="&#59041;" d="M399.87 783.51h-3.46l-91.97-95.94 82.34-0.06c7.06 0 12.79 5.7 12.81 12.76l0.28 83.24z m258.07-286.06c17.04-17.04 18.59-43.71 4.65-62.5l-4.65-5.38-94.04-94.06 94.04-94.06c18.74-18.75 18.74-49.14 0-67.88-17.04-17.04-43.71-18.59-62.5-4.65l-5.38 4.65L496 267.6l-94.06-94.04-5.38-4.65c-18.79-13.94-45.46-12.39-62.5 4.65s-18.59 43.71-4.65 62.5l4.65 5.38 94.04 94.06-94.04 94.06c-18.75 18.75-18.75 49.14 0 67.88 17.04 17.04 43.71 18.59 62.5 4.65l5.38-4.65L496 403.41l94.06 94.04 5.38 4.65c18.79 13.94 45.46 12.39 62.5-4.65z m42.86-369.94c26.51 0 48-21.49 48-48 0-24.3-18.06-44.38-41.49-47.56l-6.51-0.44h-384c-26.51 0-48 21.49-48 48 0 24.3 18.06 44.38 41.49 47.56l6.51 0.44h384z m70.4 656H508.57c-7.06 0-12.78-5.71-12.8-12.77l-0.4-147.31c-0.05-17.64-14.37-31.92-32.01-31.91l-210.57 0.05c-5.89 0-10.85-3.97-12.35-9.39l-0.45-3.41v-590.66c0-7.07 5.73-12.8 12.8-12.8h518.4c7.07 0 12.8 5.73 12.8 12.8v782.6c0.01 7.07-5.72 12.8-12.79 12.8z m12.8 96c53.02 0 96-42.98 96-96v-800.84c0-53.02-42.98-96-96-96H240c-53.02 0-96 42.98-96 96V633.0799999999999c0 16.5 6.37 32.37 17.79 44.28L336.63 859.79a63.984 63.984 0 0 0 46.21 19.72H784z"  horiz-adv-x="1024" />
      
      <glyph glyph-name="a-32_confirm_createreturnrequest" unicode="&#59042;" d="M399.87 783.51h-3.46l-91.97-95.94 82.34-0.06c7.06 0 12.79 5.7 12.81 12.76l0.28 83.24z m145.89-237.87l4.67-5.37 185.91-248.3c4.24-5.66 3.08-13.68-2.57-17.92a12.78 12.78 0 0 0-7.67-2.55H320c-26.51 0-48 21.49-48 48 0 24.3 18.06 44.38 41.49 47.56l6.51 0.44h239.81l-86.23 115.23c-14.44 19.29-12.19 45.91 4.29 62.52l5.37 4.67c19.28 14.45 45.9 12.2 62.52-4.28zM704 175.51c26.51 0 48-21.49 48-48 0-24.3-18.06-44.38-41.49-47.56l-6.51-0.44H320c-26.51 0-48 21.49-48 48 0 24.3 18.06 44.38 41.49 47.56l6.51 0.44h384z m67.2 608H508.57c-7.06 0-12.78-5.71-12.8-12.77l-0.4-147.31c-0.05-17.64-14.37-31.92-32.01-31.91l-210.57 0.05c-5.89 0-10.85-3.97-12.35-9.39l-0.45-3.41v-590.66c0-7.07 5.73-12.8 12.8-12.8h518.4c7.07 0 12.8 5.73 12.8 12.8v782.6c0.01 7.07-5.72 12.8-12.79 12.8z m12.8 96c53.02 0 96-42.98 96-96v-800.84c0-53.02-42.98-96-96-96H240c-53.02 0-96 42.98-96 96V633.0799999999999c0 16.5 6.37 32.37 17.79 44.28L336.63 859.79a63.984 63.984 0 0 0 46.21 19.72H784z"  horiz-adv-x="1024" />
      
      <glyph glyph-name="a-33_B2BCommerce" unicode="&#59043;" d="M671.921913 799.547096H352.078087v-63.968765h319.843826v63.968765z m-18.990727-216.144461v-44.978038l5.247438 0.119942c5.167477 0 8.455871 1.26938 9.865183 3.80814 1.419307 2.53876 2.12896 9.805212 2.12896 21.799356 0 6.326911-0.579717 10.764744-1.749146 13.303504-1.169429 2.53876-2.688687 4.147975-4.557774 4.807653-1.879082 0.679668-5.517306 1.059483-10.934661 1.139443z m-269.748287 0v-44.978038l5.247438 0.119942c5.167477 0 8.455871 1.26938 9.875178 3.80814s2.118965 9.805212 2.118965 21.799356c0 6.326911-0.579717 10.764744-1.749146 13.303504-1.169429 2.53876-2.688687 4.147975-4.557774 4.807653-1.869087 0.679668-5.517306 1.059483-10.934661 1.139443zM652.931186 506.939971v-56.592367c7.416379 0.249878 12.14407 1.419307 14.183075 3.498292 2.039004 2.078985 3.058507 7.206481 3.058506 15.372493v18.860791c0 8.665769-0.919551 13.913206-2.748658 15.742313s-6.666745 2.868599-14.492923 3.118478z m-269.748287 0v-56.592367c7.416379 0.249878 12.14407 1.419307 14.183075 3.498292 2.039004 2.078985 3.058507 7.206481 3.058506 15.372493v18.860791c0 8.665769-0.919551 13.913206-2.748658 15.742313s-6.65675 2.868599-14.492923 3.118478z m269.61835 111.075764c16.571908 0 29.135774-1.28937 37.671606-3.878107 8.535832-2.578741 15.432465-7.806188 20.679902-15.682342 5.247438-7.876154 7.876154-20.549966 7.876155-38.041426 0-11.824226-1.849097-20.0702-5.557287-24.737921-3.708189-4.667721-11.014622-8.245974-21.929292-10.744753 12.164061-2.748658 20.410034-7.306432 24.737921-13.683319 4.327887-6.376886 6.496828-16.142118 6.496828-29.295695V463.211323c0-13.663328-1.559239-23.778389-4.687712-30.365174-3.128472-6.576789-8.096047-11.074592-14.932708-13.493411-6.826667-2.418819-20.819834-3.618233-41.979502-3.618233h-60.840293V618.015735h52.464382z m-130.056495 3.868111c20.0702 0 35.252787-4.97757 45.537764-14.932709 10.284978-9.955139 15.432465-22.54899 15.432465-37.791547 0-11.574348-2.898585-23.81837-8.685759-36.732064l-2.078985-4.307897-6.176984-11.224519-8.875666-14.702821-18.39102-28.576047L523.874202 450.217667h55.352972v-34.483162H468.141415v28.865905l37.021923 61.390024L522.994632 537.125232l3.80814 7.356408c6.206969 12.783758 9.305456 22.758887 9.305456 29.925388 0 5.497316-0.939541 9.595315-2.808628 12.303992-1.879082 2.708677-4.727692 4.058019-8.555823 4.058019s-6.686735-1.499268-8.555822-4.497804c-1.879082-2.998536-2.808629-8.955627-2.808628-17.871274V549.169351h-45.227917v7.366403c0 11.32447 0.579717 20.260107 1.749146 26.796916 1.169429 6.536808 4.038028 12.973665 8.615793 19.300575 4.577765 6.326911 10.534856 11.114573 17.871274 14.362987 7.326423 3.268404 16.112133 4.887613 26.357131 4.887614zM383.062958 618.015735c16.571908 0 29.135774-1.28937 37.671605-3.878107 8.535832-2.578741 15.432465-7.806188 20.679903-15.682342 5.247438-7.876154 7.876154-20.549966 7.876154-38.041426 0-11.824226-1.849097-20.0702-5.557287-24.737921-3.708189-4.667721-11.014622-8.245974-21.929292-10.744753 12.164061-2.748658 20.410034-7.306432 24.737921-13.683319 4.327887-6.376886 6.496828-16.142118 6.496828-29.295695V463.211323c0-13.663328-1.559239-23.778389-4.687711-30.365174-3.118477-6.576789-8.096047-11.074592-14.932709-13.493411-6.826667-2.418819-20.819834-3.618233-41.979502-3.618233H330.58858V618.015735H383.062958z m4.167964-314.22657c26.497062 0 47.976574-21.479512 47.976574-47.976573 0-24.288141-18.051186-44.358341-41.469751-47.536789l-6.506823-0.439785H255.455266c-26.497062 0-47.976574 21.479512-47.976574 47.976574 0 24.288141 18.051186 44.358341 41.469751 47.536788l6.506823 0.439785h131.775656z m353.767262-47.976573l34.523143-34.283261-31.314709-31.114807h46.127477v-48.326403h-66.747409v-29.445622h66.747409v-48.326403h-66.747409v-44.248395h-48.876135v44.248395H607.953148v48.326403h66.747408v29.445622H607.953148v48.326403h46.287399l-31.774486 31.264734 34.523143 34.133334 42.009488-41.529722 41.999492 41.529722z m-37.091888 31.984382c-88.326872 0-159.921913-71.595041-159.921913-159.921913s71.595041-159.921913 159.921913-159.921913 159.921913 71.595041 159.921913 159.921913-71.595041 159.921913-159.921913 159.921913z m0 607.70327c35.332748 0 63.968765-28.636018 63.968765-63.968765v-15.992192h79.960957c52.994124 0 95.953148-42.959024 95.953147-95.953147v-287.859444c0-26.497062-21.479512-47.976574-47.976573-47.976574s-47.976574 21.479512-47.976574 47.976574v287.859444h-79.960957v-15.992192c0-35.332748-28.636018-63.968765-63.968765-63.968765H320.093704c-35.332748 0-63.968765 28.636018-63.968765 63.968765v15.992192h-79.960957v-735.640801h163.090366c26.497062 0 47.976574-21.479512 47.976574-47.976574s-21.479512-47.976574-47.976574-47.976574H176.163982c-52.994124 0-95.953148 42.959024-95.953147 95.953148v735.640801c0 52.994124 42.959024 95.953148 95.953147 95.953147h79.960957v15.992192c0 35.332748 28.636018 63.968765 63.968765 63.968765h383.812592z m0-511.750122c141.311 0 255.875061-114.564061 255.875061-255.875061s-114.564061-255.875061-255.875061-255.875061-255.875061 114.564061-255.875061 255.875061 114.564061 255.875061 255.875061 255.875061z"  horiz-adv-x="1024" />
      
      <glyph glyph-name="a-34_Archive" unicode="&#59044;" d="M912 783.5H112v-224h800v224z m-208-480c26.51 0 48-21.49 48-48 0-24.3-18.06-44.38-41.49-47.56l-6.51-0.44H320c-26.51 0-48 21.49-48 48 0 24.3 18.06 44.38 41.49 47.56l6.51 0.44h384z m144 160H176v-480h672v480z m64 416c49.9 0 90.91-38.07 95.56-86.75l0.44-9.25v-320h-64v-480c0-53.02-42.98-96-96-96H176c-53.02 0-96 42.98-96 96v480H16v320c0 49.9 38.07 90.91 86.75 95.56l9.25 0.44h800z"  horiz-adv-x="1024" />
      
      <glyph glyph-name="a-35_Vendors" unicode="&#59045;" d="M861.38 719.5H162.56l-49.47-148.35c8.17-47.98 27.21-69.91 62.68-74.65l7.86-0.75 8.37-0.25c30.77 0 68.89 28.84 111.56 92.48l8.59 13.2 43.01 67.93 39.39-70.1C434.87 527.24 474.38 495.5 512 495.5c34.97 0 70.82 27.57 106.83 89.84l7.21 12.92 36.38 67.56 44.84-62.26C760.49 529.62 804.13 495.5 832 495.5c40.7 0 63.75 15.87 74.82 56.3l2.19 9.04 1.9 10.12-49.53 148.54zM560 367.5c26.51 0 48-21.49 48-48 0-24.3-18.06-44.38-41.49-47.56l-6.51-0.44H304c-26.51 0-48 21.49-48 48 0 24.3 18.06 44.38 41.49 47.56l6.51 0.44h256z m0-128c26.51 0 48-21.49 48-48 0-24.3-18.06-44.38-41.49-47.56l-6.51-0.44H304c-26.51 0-48 21.49-48 48 0 24.3 18.06 44.38 41.49 47.56l6.51 0.44h256z m324.47 576c25.04 0 47.53-14.57 57.96-36.85l2.76-6.91 63.76-191.29-1.29-10.7c-9.53-78.94-45.02-133.25-102.53-156.89l-0.03-413.36c0-26.51-21.49-48-48-48-24.3 0-44.38 18.06-47.56 41.49l-0.44 6.51-0.01 401.97c-41.84 7.21-83.21 34.09-125.77 79.45l-10.81 11.89-4.39-5.89c-38.6-49.16-82.48-78.5-131.88-85.68l-12.47-1.33-11.77-0.41c-53.97 0-102.24 25.09-145.14 72.61l-9.8 11.36-6.08 7.67-7.5-9c-38.53-44.04-78.83-71.12-121.63-79.7l-0.02-354.96H656V255.94000000000005c0 24.3 18.06 44.38 41.49 47.56l6.51 0.44c24.3 0 44.38-18.06 47.56-41.49l0.44-6.51V15.5c0-35.35-28.65-64-64-64H189.85c-35.35 0-64 28.65-64 64l-0.05 394.79c-57.53 20.8-94.48 70.99-107.29 145l-2.12 14.15L15 580.3l63.81 191.44c7.92 23.76 28.85 40.49 53.29 43.33l7.43 0.43h744.94z"  horiz-adv-x="1024" />
      
      <glyph glyph-name="a-36_Vendorusers" unicode="&#59046;" d="M511.83 799.38c-88.37 0-160-71.63-160-160s71.63-160 160-160 160 71.63 160 160-71.63 160-160 160z m482.89-559.04c16.55-17.52 17.34-44.22 2.87-62.61l-4.8-5.25-276.31-261.05c-23.72-22.41-60.05-23.15-84.6-2.92l-6.1 5.73-116.26 124.3c-18.11 19.36-17.09 49.74 2.27 67.84 17.6 16.46 44.3 17.12 62.62 2.56l5.23-4.82 94.25-100.74 252.99 238.89c19.26 18.2 49.64 17.34 67.84-1.93zM511.83 895.38c141.38 0 256-114.62 256-256 0-88.41-44.82-166.36-112.98-212.36 80.23-9.28 147.44-34.37 214.77-79.78 21.98-14.82 27.78-44.66 12.95-66.63-14.82-21.98-44.66-27.78-66.63-12.95-71.68 48.35-141.03 67.73-240.11 67.73-268.39 0-446.57-154.69-446.57-400 0-26.51-21.49-48-48-48s-48 21.49-48 48c0 242.15 144.38 415.21 366.22 474.02-85.07 41.49-143.65 128.89-143.65 229.97 0 141.38 114.62 256 256 256z"  horiz-adv-x="1024" />
      
      <glyph glyph-name="a-37_Pickup" unicode="&#59047;" d="M416.485445 783.661688c-42.194342 0-73.222827-23.081435-93.765204-76.181729l-4.238428-11.845605-2.459087-7.94705h200.43562l-2.429099 8.05701c-17.70343 53.999961-44.7334 80.959956-81.6497 86.717819l-8.05701 0.909663-7.837092 0.289892z m390.315156-608.144321c9.816357-12.255452 9.136609-29.529042-0.819695-40.964799l-4.168454-3.998516-114.427536-91.586013c-13.415022-10.736016-32.917784-8.956676-44.163611 4.028505l-46.532732 53.710069c-11.565708 13.355044-10.126242 33.557547 3.228801 45.123255 11.865597 10.286183 29.149183 10.286183 40.964799 0.77971l4.158456-4.008512 26.370215-30.448701 90.436439 72.353151c13.784885 11.035905 33.917413 8.796736 44.953318-4.988149z m-102.761865 112.328315c-88.337219 0-159.940647-71.603428-159.940647-159.940647s71.603428-159.940647 159.940647-159.940647 159.940647 71.603428 159.940647 159.940647-71.613425 159.940647-159.940647 159.940647z m-287.553291 591.780394c103.071751 0 169.866963-68.574552 199.066128-191.908784l34.727113-0.019992c51.201 0 95.424589-34.637146 108.249829-83.379059l2.029247-9.29655 24.290986-138.96843c4.558308-26.100314-12.905211-50.961089-39.005526-55.529393-23.931119-4.178449-46.812628 10.146235-53.969972 32.667877l-1.549425 6.337648-24.290986 138.96843a16.012058 16.012058 0 0 1-11.985552 12.795252l-3.768601 0.449833H189.159804c-7.107363 0-13.175111-4.648275-15.234347-11.125871l-0.739725-4.088483-26.590133-540.849294c0-7.567192 5.258049-13.914836 12.325426-15.574221l3.668639-0.419844h254.315625c26.500166 0 47.982194-21.482028 47.982194-47.982194 0-24.290986-18.053301-44.363537-41.474609-47.542357l-6.507585-0.439837H162.589664c-61.837053 0-111.958453 50.1214-111.958453 111.958453l0.139948 5.497959 26.57014 540.069584c2.778969 56.479041 47.082528 101.492337 102.491966 106.070638l9.336535 0.379859 27.709717 0.009996c29.58902 123.374217 96.554169 191.91878 199.605928 191.91878z m287.553291-495.816006c141.327554 0 255.905035-114.577481 255.905035-255.905035s-114.577481-255.905035-255.905035-255.905035-255.905035 114.577481-255.905036 255.905035 114.567485 255.905035 255.905036 255.905035z"  horiz-adv-x="1024" />
      
      <glyph glyph-name="a-38_AdjustStockLevel" unicode="&#59048;" d="M304 383.75c26.51 0 48-21.49 48-48s-21.49-48-48-48-48 21.49-48 48 21.49 48 48 48z m320 32c24.3 0 44.38-18.06 47.56-41.49l0.44-6.51v-48h218.19c26.51 0 48-21.49 48-48 0-24.3-18.06-44.38-41.49-47.56l-6.51-0.44H672v-48c0-26.51-21.49-48-48-48-24.3 0-44.38 18.06-47.56 41.49l-0.44 6.51v48h-16c-26.51 0-48 21.49-48 48 0 24.3 18.06 44.38 41.49 47.56l6.51 0.44h16v48c0 26.51 21.49 48 48 48z m-192-224c26.51 0 48-21.49 48-48s-21.49-48-48-48-48 21.49-48 48 21.49 48 48 48z m-128 0c26.51 0 48-21.49 48-48s-21.49-48-48-48-48 21.49-48 48 21.49 48 48 48zM519.13 814.17l336-259.64A64.011 64.011 0 0 0 880 503.89v-72.14c0-26.51-21.49-48-48-48s-48 21.49-48 48V488.2L480 723.14 176 488.26v-472.51h208c26.51 0 48-21.49 48-48s-21.49-48-48-48H144c-35.35 0-64 28.65-64 64V503.89c0 19.82 9.18 38.52 24.87 50.64l336 259.64c23.05 17.81 55.21 17.81 78.26 0z m307.06-622.42c24.3 0 44.38-18.06 47.56-41.49l0.44-6.51v-48h16l6.51-0.44c23.43-3.18 41.49-23.26 41.49-47.56s-18.06-44.38-41.49-47.56l-6.51-0.44h-16v-48l-0.44-6.51c-3.18-23.43-23.26-41.49-47.56-41.49s-44.38 18.06-47.56 41.49l-0.44 6.51v48H560l-6.51 0.44c-23.43 3.18-41.49 23.26-41.49 47.56s18.06 44.38 41.49 47.56l6.51 0.44h218.19v48l0.44 6.51c3.18 23.43 23.26 41.49 47.56 41.49z"  horiz-adv-x="1024" />
      
      <glyph glyph-name="a-39_Aadvance_shipping_notice" unicode="&#59049;" d="M320 527.1600000000001c24.3 0 44.38-18.06 47.56-41.49l0.44-6.51v-112c0-35.35-28.65-64-64-64H192c-26.51 0-48 21.49-48 48 0 24.3 18.06 44.38 41.49 47.56l6.51 0.44h73.6c3.53 0 6.4 2.87 6.4 6.4v73.6c0 24.3 18.06 44.38 41.49 47.56l6.51 0.44zM912 874.94c53.02 0 96-42.98 96-96v-651.78c0-26.51-21.49-48-48-48-24.3 0-44.38 18.06-47.56 41.49l-0.44 6.51V766.2c0 7.07-5.73 12.8-12.8 12.8H380.8c-7.07 0-12.8-5.73-12.8-12.8v-117.15c0-24.24-13.7-46.41-35.38-57.25L112 481.53v-310.41c0-24.3-18.06-44.38-41.49-47.56l-6.51-0.44c-24.3 0-44.38 18.06-47.56 41.49l-0.44 6.51V481.5c0 36.36 20.54 69.6 53.06 85.86l167.57 83.8C258.31 662 272 684.16 272 708.4v70.53c0 53.02 42.98 96 96 96h544zM736 159.15999999999997c-35.35 0-64-28.65-64-64s28.65-64 64-64 64 28.65 64 64-28.65 64-64 64z m-448 0c-35.35 0-64-28.65-64-64s28.65-64 64-64 64 28.65 64 64-28.65 64-64 64z m448 96c88.37 0 160-71.63 160-160s-71.63-160-160-160c-77.4 0-141.96 54.95-156.79 127.97H444.79C429.96-9.889999999999986 365.4-64.84000000000003 288-64.84000000000003c-88.37 0-160 71.63-160 160s71.63 160 160 160c77.42 0 142-54.99 156.81-128.04H579.2C594 200.16999999999996 658.58 255.15999999999997 736 255.15999999999997z"  horiz-adv-x="1024" />
      
      <glyph glyph-name="a-40_atp_formulas" unicode="&#59050;" d="M606.826476 428.954367L239.924878 795.486134l670.062452 0.359835c27.507375 0.019991 49.807139 22.329751 49.807139 49.837126 0 25.20843-18.731403 46.038869-43.030249 49.327359l-6.786885 0.459789-747.396957-0.399816c-35.313792-0.049977-63.940652-28.686833-63.970638-64.000625v-35.653636L465.721241 428.994348c23.079407-23.039425 24.888577-59.322772 5.397523-84.441242l-5.377532-6.097202-367.231446-366.911593v-35.133874c0.029986-35.313792 28.656847-63.950648 63.970638-64.000625l747.406952-0.409812c25.20843-0.009995 46.048864 18.701416 49.357346 43.000264l0.459789 6.786884c0 27.51737-22.299765 49.82713-49.817135 49.837126l-670.062452 0.359835 366.931584 366.531768c25.018517 24.938554 25.038508 65.439964 0.069968 90.43849z"  horiz-adv-x="1024" />
      
      <glyph glyph-name="a-41_consignments" unicode="&#59051;" d="M675.2 646.64h-192v-39.03h192v39.03zM832 511.6l-48 0.01v-256l48-0.01v256z m-144 0.01H464v-256h224v256z m-320 0l-48-0.01v-256l48 0.01v256z m307.2 230.98c53.02 0 96-42.98 96-96v-38.98l60.8-0.01c53.02 0 96-42.98 96-96v-256c0-53.02-42.98-96-96-96H320c-53.02 0-96 42.98-96 96v256c0 53.02 42.98 96 96 96l67.2 0.01v38.98c0 53.02 42.98 96 96 96h192zM819.64 31.5l-108.99-0.01c6.06-27.23 23.03-37.87 54.56-37.87 28.66 0 45.25 8.78 52.53 30.86l1.9 7.02z m-384 0l-108.99-0.01c6.06-27.23 23.03-37.87 54.56-37.87 28.66 0 45.25 8.78 52.53 30.86l1.9 7.02zM97.69 831.55c53.02 0 96-42.98 96-96l-0.02-595.2c0-7.07 5.73-12.8 12.8-12.8H960c24.3 0 44.38-18.06 47.56-41.49l0.44-6.51c0-24.3-18.06-44.38-41.49-47.56l-6.51-0.44-75.72-0.04c-9.08-64.95-50.59-101.89-119.07-101.89-68.48 0-110.04 36.93-119.23 101.89H500.29c-9.08-64.95-50.59-101.89-119.07-101.89-68.48 0-110.04 36.93-119.23 101.89l-68.29 0.04c-53.02 0-96 42.98-96 96l-0.02 608H64c-24.3 0-44.38 18.06-47.56 41.49l-0.44 6.51c0 24.3 18.06 44.38 41.49 47.56l6.51 0.44h33.69z"  horiz-adv-x="1024" />
      
      <glyph glyph-name="a-42_restock" unicode="&#59052;" d="M527.94 783.5h-32l0.06-307.2-0.45-3.41a12.831 12.831 0 0 0-8.94-8.94l-3.4-0.46h-36.22l67.65-43.14 74.56 43.14h-48.4c-5.89 0-10.85 3.98-12.34 9.4l-0.46 3.4-0.06 307.21z m32.07 96.01c32.82-0.01 59.87-24.72 63.55-56.55l0.43-7.46-0.05-256h96.41c16.27 0 31.62-6.5 42.86-17.67l5.26-5.97 4.49-6.69c15.53-26.82 8.27-60.58-15.79-78.85l-6.36-4.23-204.88-118.63a63.987 63.987 0 0 0-59.58-2.4l-6.91 3.83-185.82 118.55a60.81 60.81 0 0 0-28.1 51.26c0 31.18 23.47 56.88 53.71 60.39l7.09 0.41h73.61l0.05 256c0.02 32.82 24.72 59.86 56.55 63.57l7.47 0.43 96.01 0.01zM250.76 207.5H134.89l89.62-224h574.91l89.58 224H773.2c-24.25 0-46.41-13.7-57.25-35.39l-28.59-57.22a63.996 63.996 0 0 0-57.25-35.39H393.88a64.003 64.003 0 0 0-57.24 35.37L308 172.13a64.003 64.003 0 0 1-57.24 35.37z m37.24 480c17.67 0 32-14.33 32-32v-32c0-17.67-14.33-32-32-32h-61.44l-96.02-288H310.1c24.25 0 46.41-13.7 57.25-35.39l28.59-57.22a63.996 63.996 0 0 1 57.25-35.39h117.56c24.24 0 46.39 13.69 57.24 35.37l28.65 57.27c10.84 21.68 33 35.37 57.24 35.37h179.47l-95.98 288H736c-17.67 0-32 14.33-32 32v32c0 17.67 14.33 32 32 32h84.47c27.55 0 52-17.63 60.72-43.76l122.5-367.5a64 64 0 0 0-1.29-44.01l-121.8-304.5c-9.72-24.3-33.25-40.23-59.42-40.23H202.83c-26.17 0-49.7 15.93-59.42 40.23l-121.8 304.5a63.998 63.998 0 0 0-1.29 44.01l122.5 367.5c8.71 26.13 33.17 43.76 60.72 43.76H288z"  horiz-adv-x="1024" />
      
      <glyph glyph-name="a-43_stock_level" unicode="&#59053;" d="M467.2 447.58c7.07 0 12.8-5.73 12.8-12.8v-70.4c0-7.07-5.73-12.8-12.8-12.8h-70.4c-7.07 0-12.8 5.73-12.8 12.8v70.4c0 7.07 5.73 12.8 12.8 12.8h70.4z m316.8-112c26.51 0 48-21.49 48-48s-21.49-48-48-48H624c-26.51 0-48 21.49-48 48s21.49 48 48 48h160z m-508.8-80c7.07 0 12.8-5.73 12.8-12.8v-70.4c0-7.07-5.73-12.8-12.8-12.8h-70.4c-7.07 0-12.8 5.73-12.8 12.8v70.4c0 7.07 5.73 12.8 12.8 12.8h70.4z m192 0c7.07 0 12.8-5.73 12.8-12.8v-70.4c0-7.07-5.73-12.8-12.8-12.8h-70.4c-7.07 0-12.8 5.73-12.8 12.8v70.4c0 7.07 5.73 12.8 12.8 12.8h70.4z m252.8-64c26.51 0 48-21.49 48-48s-21.49-48-48-48h-96c-26.51 0-48 21.49-48 48s21.49 48 48 48h96z m192-160c26.51 0 48-21.49 48-48s-21.49-48-48-48H624c-26.51 0-48 21.49-48 48s21.49 48 48 48h288zM594.42 776.8l9.66-7.37L979.16 457.5a80.048 80.048 0 0 0 28.36-52.66l0.48-8.84v-77.08c0-26.51-21.49-48-48-48-24.3 0-44.38 18.06-47.56 41.49l-0.44 6.51V388.5L542.69 695.62c-15.81 13.15-37.96 14.61-55.18 4.38l-6.2-4.38L112 388.57v-366.53l325.33-0.06c24.3 0 44.38-18.06 47.56-41.49l0.44-6.51c0-24.3-18.06-44.38-41.49-47.56l-6.51-0.44H96c-41.42 0-75.49 31.48-79.59 71.82l-0.41 8.17V396c0 20.8 8.09 40.66 22.36 55.48l6.49 6.03 375.08 311.93c50.22 41.76 121.76 44.22 174.49 7.36z"  horiz-adv-x="1024" />
      
      <glyph glyph-name="a-44_To_be_picked" unicode="&#59054;" d="M416.485445 783.661688c-42.194342 0-73.222827-23.081435-93.765204-76.181729l-4.238428-11.845605-2.459087-7.94705h200.43562l-2.429099 8.05701c-17.70343 53.999961-44.7334 80.959956-81.6497 86.717819l-8.05701 0.909663-7.837092 0.289892z m287.553291-591.780394c35.336887 0 63.976259-28.639372 63.976258-63.976259s-28.639372-63.976259-63.976258-63.976259-63.976259 28.639372-63.976259 63.976259 28.639372 63.976259 63.976259 63.976259z m0 95.964388c-88.337219 0-159.940647-71.603428-159.940647-159.940647s71.603428-159.940647 159.940647-159.940647 159.940647 71.603428 159.940647 159.940647-71.613425 159.940647-159.940647 159.940647z m-287.553291 591.780394c103.071751 0 169.866963-68.574552 199.066128-191.908784l34.727113-0.019992c51.201 0 95.424589-34.637146 108.249829-83.379059l2.029247-9.29655 24.290986-138.96843c4.558308-26.100314-12.905211-50.961089-39.005526-55.529393-23.931119-4.178449-46.812628 10.146235-53.969972 32.667877l-1.549425 6.337648-24.290986 138.96843a16.012058 16.012058 0 0 1-11.985552 12.795252l-3.768601 0.449833H189.159804c-7.107363 0-13.175111-4.648275-15.234347-11.125871l-0.739725-4.088483-26.590133-540.849294c0-7.567192 5.258049-13.914836 12.325426-15.574221l3.668639-0.419844h254.315625c26.500166 0 47.982194-21.482028 47.982194-47.982194 0-24.290986-18.053301-44.363537-41.474609-47.542357l-6.507585-0.439837H162.589664c-61.837053 0-111.958453 50.1214-111.958453 111.958453l0.139948 5.497959 26.57014 540.069584c2.778969 56.479041 47.082528 101.492337 102.491966 106.070638l9.336535 0.379859 27.709717 0.009996c29.58902 123.374217 96.554169 191.91878 199.605928 191.91878z m287.553291-495.816006c141.327554 0 255.905035-114.577481 255.905035-255.905035s-114.577481-255.905035-255.905035-255.905035-255.905035 114.577481-255.905036 255.905035 114.567485 255.905035 255.905036 255.905035z"  horiz-adv-x="1024" />
      
      <glyph glyph-name="a-45_Warehouse" unicode="&#59055;" d="M275.2 383.58000000000004c7.07 0 12.8-5.73 12.8-12.8v-70.4c0-7.07-5.73-12.8-12.8-12.8h-70.4c-7.07 0-12.8 5.73-12.8 12.8v70.4c0 7.07 5.73 12.8 12.8 12.8h70.4z m460.8-96H608v-64h128v64z m32 96c35.35 0 64-28.65 64-64v-128c0-35.35-28.65-64-64-64H576c-35.35 0-64 28.65-64 64v128c0 35.35 28.65 64 64 64h192z m-364.8-192c7.07 0 12.8-5.73 12.8-12.8v-70.4c0-7.07-5.73-12.8-12.8-12.8h-70.4c-7.07 0-12.8 5.73-12.8 12.8v70.4c0 7.07 5.73 12.8 12.8 12.8h70.4z m-128 0c7.07 0 12.8-5.73 12.8-12.8v-70.4c0-7.07-5.73-12.8-12.8-12.8h-70.4c-7.07 0-12.8 5.73-12.8 12.8v70.4c0 7.07 5.73 12.8 12.8 12.8h70.4z m678.4 35.2c24.3 0 44.38-18.06 47.56-41.49l0.44-6.51v-188.03c0-35.35-28.65-64-64-64h-368c-26.51 0-48 21.49-48 48 0 24.3 18.06 44.38 41.49 47.56l6.51 0.44 335.94 0.06 0.06 155.97c0 24.3 18.06 44.38 41.49 47.56l6.51 0.44zM594.42 776.8l9.66-7.37L979.16 457.5a80.048 80.048 0 0 0 28.36-52.66l0.48-8.84v-77.08c0-26.51-21.49-48-48-48-24.3 0-44.38 18.06-47.56 41.49l-0.44 6.51V388.5L542.69 695.62c-15.81 13.15-37.96 14.61-55.18 4.38l-6.2-4.38L112 388.57v-366.53l325.33-0.06c24.3 0 44.38-18.06 47.56-41.49l0.44-6.51c0-24.3-18.06-44.38-41.49-47.56l-6.51-0.44H96c-41.42 0-75.49 31.48-79.59 71.82l-0.41 8.17V396c0 20.8 8.09 40.66 22.36 55.48l6.49 6.03 375.08 311.93c50.22 41.76 121.76 44.22 174.49 7.36z"  horiz-adv-x="1024" />
      
      <glyph glyph-name="a-46_Consignment" unicode="&#59056;" d="M931.87 816c25.62 0 46.39-21.49 46.39-48 0-24.3-17.45-44.38-40.1-47.56l-6.3-0.44H64.65c-25.62 0-46.39 21.49-46.39 48 0 24.3 17.45 44.38 40.1 47.56l6.3 0.44h867.21zM557.21 581.4100000000001c-56.26-21.2-106.71-54.24-148.32-96.08H66.27c-26.51 0-48 21.49-48 48 0 24.3 18.06 44.38 41.49 47.56l6.51 0.44 490.94 0.08zM307.93 320.03c-9.89-30.6-16.33-62.76-18.86-96.01L66.26 224c-26.51 0-48 21.49-48 48 0 24.3 18.06 44.38 41.49 47.56l6.51 0.44 241.67 0.03z m363.93-2.84c24.3 0 44.38-18.06 47.56-41.49l0.44-6.51v-79.94l80-0.06c24.3 0 44.38-18.06 47.56-41.49l0.44-6.51c0-24.3-18.06-44.38-41.49-47.56l-6.51-0.44h-144c-17.67 0-32 14.33-32 32v144c0 26.51 21.49 48 48 48z m32 98.81c-123.71 0-224-100.29-224-224s100.29-224 224-224 224 100.29 224 224-100.29 224-224 224zM66.26 64l241.67-0.02a413.88 413.88 0 0 1 45.35-96.02L66.26-32c-26.51 0-48 21.49-48 48 0 24.3 18.06 44.38 41.49 47.56l6.51 0.44z m637.6 448c176.73 0 320-143.27 320-320s-143.27-320-320-320-320 143.27-320 320 143.27 320 320 320z"  horiz-adv-x="1024" />
      
      <glyph glyph-name="a-47_Integration" unicode="&#59057;" d="M511.83 777.17l-378.3-201.54 379.52-201.6 373.82 201.54-375.04 201.6z m-37.49 88.71a80.001 80.001 0 0 0 67.47 3.6l8.02-3.75 408.72-219.75c38.91-20.92 53.5-69.43 32.58-108.34a79.965 79.965 0 0 0-24.54-27.62l-7.96-4.91-407.46-219.67a80.023 80.023 0 0 0-67.45-3.95l-8.03 3.71L61.92 504.95C22.9 525.6700000000001 8.07 574.11 28.79 613.13a79.928 79.928 0 0 0 24.93 28.12l8.12 4.97 412.5 219.66z m527.43-461.19c11.99-21.14 6.2-47.51-12.61-61.84l-5.45-3.6-470.32-266.83L40.44 339.20000000000005c-23.09 13.02-31.25 42.3-18.23 65.39 11.94 21.17 37.53 29.79 59.5 21.04l5.89-2.82 425.63-240.08 423.1 240.02c23.06 13.08 52.35 5 65.44-18.06z m0-192c11.99-21.14 6.2-47.51-12.61-61.84l-5.45-3.6-470.31-266.84L40.44 147.20000000000005c-23.09 13.02-31.25 42.3-18.23 65.39 11.94 21.17 37.53 29.79 59.5 21.04l5.89-2.82 425.63-240.08 423.1 240.02c23.06 13.08 52.35 5 65.44-18.06z"  horiz-adv-x="1024" />
      
      <glyph glyph-name="a-48_integrateapi" unicode="&#59058;" d="M541.211022 452.832063h-14.742945v-55.883259h14.742945c13.10373 0 22.309325 8.186083 22.309325 27.83668 0.009995 19.240793-9.205595 28.046579-22.309325 28.046579z m-132.986364 5.527355h-1.019512l-2.118986-11.024725-2.588761-10.874796-12.484026-50.565803h35.00325l-12.284122 50.565803c-1.849115 7.156575-3.478336 14.533046-4.507843 21.899521zM604.510732 319.77573199999995v31.984695l12.534002 0.059971v95.954085l-12.534002-0.059971v31.984694h63.96939v-31.984694l-13.56351 0.059971v-95.954085l13.56351-0.059971v-31.984695h-63.96939z m-61.450595 159.663599c37.871878 0 58.342082-16.78197 58.342083-52.604828 0-36.492538-22.239358-53.924196-54.593876-56.233092l-7.636346-0.26987h-12.693926v-50.565804h-35.822858V479.439331h52.404923z m-104.94978 0l40.94041-159.663599H441.188884l-9.21559 37.462074h-48.926588l-9.00569-37.462074H339.037765l40.740505 159.663599h58.332087zM511.755117 575.6532910000001c-105.989282 0-191.908169-85.918886-191.908169-191.908169s85.918886-191.908169 191.908169-191.908169 191.908169 85.918886 191.908169 191.908169-85.918886 191.908169-191.908169 191.908169z m0 79.961737c150.148152 0 271.869906-121.721754 271.869906-271.869906s-121.721754-271.869906-271.869906-271.869906-271.869906 121.721754-271.869906 271.869906 121.721754 271.869906 271.869906 271.869906z m21.409755 149.978233h-42.769534c-5.28747 0-10.275083-2.178957-13.853371-5.907173l-2.408847-3.088522-32.444475-51.695263c-153.05676-29.525871-272.319691-153.926344-294.15924-309.571865L104.94978 408.623217c-5.597322-3.508321-8.995695-9.65538-8.995696-16.262218v-42.769534c0-6.586848 3.378383-12.713916 8.94572-16.222237l47.917071-30.34548c31.78479-141.932083 145.590333-252.878993 289.061679-280.465792l32.694355-51.715254c2.808656-4.457867 7.296509-7.506408 12.344094-8.54591l3.878144-0.399809h42.769534c5.28747 0 10.275083 2.178957 13.853371 5.907173l2.408847 3.088522 32.514442 51.795215c141.622232 27.526828 254.218353 136.304776 287.312516 275.848003l55.00368 34.833332c4.457867 2.808656 7.506408 7.296509 8.545911 12.344093l0.399808 3.878144v42.769534c0 5.28747-2.178957 10.275083-5.907173 13.853371l-3.088522 2.408847-49.226445 30.835245c-23.338832 153.606497-141.692198 276.007926-293.23968 305.373874L549.38711 796.647542a19.16383 19.16383 0 0 1-16.222238 8.945719zM557.033451 895.500239c23.668674 0 43.749065-17.341702 47.197415-40.7505l3.158489-21.589669c175.506018-38.471591 312.880282-175.066228 352.361389-350.342356l21.949497-2.738689c23.888569-2.958584 41.809993-23.25887 41.809993-47.317358v-94.294879c0-23.668674-17.341702-43.749065-40.7505-47.197415l-21.319798-3.128503c-36.792394-177.794922-174.156663-317.648-351.271911-357.618874l-2.089-16.712003c-2.968579-23.878574-23.25887-41.799998-47.317358-41.809993H466.476784c-23.658679 0-43.749065 17.341702-47.197416 40.7505l-2.2989 15.692491c-180.20377 36.282638-322.555652 177.315152-360.527482 357.159094l-14.623002 1.819129C17.941415 290.37979900000005 0.009995 310.67008999999996 0 334.728577V429.023456c0 23.668674 17.341702 43.749065 40.7505 47.197415l15.932376 2.328885C95.074505 656.84444 234.567756 795.9478770000001 412.942401 833.819754l2.478813 19.860497C418.389794 877.558824 438.680085 895.480249 462.738572 895.490244h94.294879z"  horiz-adv-x="1024" />
      
      <glyph glyph-name="a-49_outboundsync" unicode="&#59059;" d="M497.77 879.5c153.35 0 296.28-62.13 399.97-168l0.03 56c0 24.3 18.06 44.38 41.49 47.56l6.51 0.44c24.3 0 44.38-18.06 47.56-41.49l0.44-6.51v-176c0-35.35-28.65-64-64-64h-176c-26.51 0-48 21.49-48 48 0 24.3 18.06 44.38 41.49 47.56l6.51 0.44 94.54 0.04C761.29 723.89 634.59 783.5 497.77 783.5c-161.46 0-308.59-83.07-393.03-217.24-14.12-22.44-43.75-29.18-66.19-15.06-22.44 14.12-29.18 43.75-15.06 66.19C125.32 779.2 302.97 879.5 497.77 879.5z m172.22-363.25l5.09-4.97 114.73-126.42c23.48-25.87 21.87-65.79-3.61-89.69L670.35 186.5c-20.13-17.25-50.43-14.92-67.68 5.21-15.68 18.3-15.18 45 0.16 62.67l5.05 5.01 51.37 44.11H304.11c-26.51 0-48 21.49-48 48s21.49 48 48 48h341.57l-42.54 48.22c-15.96 18.06-15.86 44.77-0.79 62.67l4.97 5.09c18.07 15.95 44.78 15.85 62.67 0.77zM256.11 239.5c26.51 0 48-21.49 48-48 0-24.3-18.06-44.38-41.49-47.56l-6.51-0.44-94.54-0.04C248.59 43.110000000000014 375.29-16.5 512.11-16.5c161.45 0 308.59 83.07 393.03 217.24 14.12 22.44 43.75 29.18 66.19 15.06 22.44-14.12 29.18-43.75 15.06-66.19C884.56-12.200000000000045 706.91-112.5 512.11-112.5c-153.35 0-296.28 62.13-399.97 168l-0.03-56c0-24.3-18.06-44.38-41.49-47.56l-6.51-0.44c-24.3 0-44.38 18.06-47.56 41.49l-0.44 6.51v176c0 35.35 28.65 64 64 64h176z"  horiz-adv-x="1024" />
      
      <glyph glyph-name="a-50_webhooks" unicode="&#59060;" d="M511.750122 799.547096c-17.661376 0-31.984383-14.323006-31.984383-31.984382s14.323006-31.984383 31.984383-31.984383 31.984383 14.323006 31.984383 31.984383-14.323006 31.984383-31.984383 31.984382z m0-319.843826c-88.326872 0-159.921913-71.595041-159.921913-159.921913s71.595041-159.921913 159.921913-159.921913 159.921913 71.595041 159.921913 159.921913-71.595041 159.921913-159.921913 159.921913z m383.812592-447.781357c-17.661376 0-31.984383-14.323006-31.984383-31.984382s14.323006-31.984383 31.984383-31.984383 31.984383 14.323006 31.984382 31.984383-14.323006 31.984383-31.984382 31.984382z m-767.625183 0c-17.661376 0-31.984383-14.323006-31.984383-31.984382s14.323006-31.984383 31.984383-31.984383 31.984383 14.323006 31.984382 31.984383-14.323006 31.984383-31.984382 31.984382zM511.750122 895.500244c70.6555 0 127.937531-57.28203 127.937531-127.93753 0-53.663797-33.043865-99.621357-79.900986-118.612084l-0.019991-77.792016C678.128882 548.6895850000001 767.625183 444.690366 767.625183 319.78135699999996c0-44.568238-11.394436-86.48777-31.434651-122.979951l99.731303-83.649156c17.811303 9.405408 38.101396 14.722811 59.640879 14.722811 70.6555 0 127.937531-57.28203 127.93753-127.93753s-57.28203-127.937531-127.93753-127.937531-127.937531 57.28203-127.937531 127.937531c0 13.943192 2.228912 27.366637 6.356896 39.920507l-98.891713 82.949497c-44.31836-36.78204-101.250561-58.90124-163.340244-58.901239-60.100654 0-115.36367 20.719883-159.032347 55.412943L251.257316 34.120839000000046c3.008531-10.884685 4.617745-22.339092 4.617745-34.183308 0-70.6555-57.28203-127.937531-127.93753-127.937531S0-70.71797000000004 0-0.06246899999996458s57.28203 127.937531 127.937531 127.93753c23.618468 0 45.747662-6.406872 64.738389-17.57142l97.352465 81.650132C268.30899 229.57540300000005 255.875061 273.22409000000005 255.875061 319.78135699999996c0 124.929 89.526286 228.938214 207.928472 251.387252L463.773548 648.920644c-46.887106 18.980732-79.960957 64.948287-79.960956 118.64207 0 70.6555 57.28203 127.937531 127.93753 127.93753z"  horiz-adv-x="1024" />
      
      <glyph glyph-name="a-51_exportconfig" unicode="&#59061;" d="M752.06 723.86l0.06-62.79-42.19-5.14c-122.01-14.88-280.27-88.07-380.59-181.7l-15.49-15.07 76.16 28.24 42.78 14.53c81.12 26.41 157.8 44.77 234.36 54.05l32.82 3.42 52.16 4.53-0.06-77.44 135.3 115.71-135.31 121.66zM516.91 879.57c26.51 0 48-21.49 48-48 0-24.3-18.06-44.38-41.49-47.56l-6.51-0.44H133.5c-7.48 0-13.78-5.14-15.52-12.11l-0.47-3.62v-320.27c-1.76-48.13-91.2-54.18-95.99 0V769.45c0.97 57.9 45.75 104.93 102.43 109.72l9.55 0.4h383.41z m200.01-15.93c12.51 0 24.65-3.86 34.81-10.95l5.84-4.64 207.54-186.7c30.66-27.58 35.03-73.48 11.45-106.18l-5.48-6.79-4.59-4.69-210.04-179.87c-25.51-21.83-63.89-18.85-85.73 6.67a60.83 60.83 0 0 0-13.99 30.91l-0.61 8.62-0.06 47.6-7.66-1.15c-50.15-7.8-101.11-19.87-154.25-35.91L462 410.47l-32.74-11.03-16.93-6.06-144.14-54.2-14.69-4.91c-21.29-6.66-35.9-9.04-51.08-6.5-48.18 8.07-55.55 50.9-38.19 86.82 73.55 152.18 282.92 279.57 463.69 323.6l17.98 4.12 10.16 2.09 0.06 58.56c0.06 28.73 20.04 52.79 46.87 59.08l6.84 1.19 7.09 0.41z m-538.36-715.7a66.854 66.854 0 0 1-37.99-35.15 66.852 66.852 0 0 1-1.52-51.73 62.542 62.542 0 0 1 38.26-38.96 62.605 62.605 0 0 1 53.01 0 72.306 72.306 0 0 1 32.43 29.6l3.99 8.04c2.73 8.81 3.94 17.8 3.39 26.72 0.15 8.59-1.66 17.21-5.35 25.07-3.5 7.7-8.18 14.74-13.79 21.01a59.528 59.528 0 0 1-21.01 15.41 66.231 66.231 0 0 1-51.42-0.01z m781.56 219.63c24.3 0 44.38-18.06 47.56-41.49l0.44-6.51v-320c0-58.76-45.26-106.96-102.81-111.63l-9.19-0.37h-384c-26.51 0-48 21.49-48 48 0 24.3 18.06 44.38 41.49 47.56l6.51 0.44h384c7.57 0 13.92 5.26 15.58 12.33l0.42 3.67v320c0 26.51 21.5 48 48 48z m-757.49-70.89l6.22-0.37c9.02-0.3 17.93-2.1 26.36-5.34 3.03-1.09 5.37-3.55 6.3-6.64 0.41-2.91 0.41-5.86 0-8.77a40.83 40.83 0 0 1 5.93-24.55 39.151 39.151 0 0 1 20.16-17.77c8.44-3.65 17.84-4.68 26.87-2.88a38.927 38.927 0 0 1 21.97 12.61c2.34 2.16 5.14 3.76 8.18 4.68 2.91 1.29 6.23 1.29 9.14 0 8.4-3.95 15.94-9.5 22.23-16.33 7.3-6.9 12.07-16.05 13.53-25.99-0.11-2.22-0.76-4.37-1.92-6.27a8.732 8.732 0 0 0-4.05-4.09c-6.89-5.82-11.72-13.75-13.79-22.6-2.29-9.14-1.77-18.73 1.55-27.57a39.366 39.366 0 0 1 18.5-19.79 67.428 67.428 0 0 1 28.57-5.97 9.21 9.21 0 0 0 7.52 0c1.83-0.92 3.38-2.28 4.53-3.94l1.4-2.69c2.24-6.83 3.22-14.08 2.73-21.31 0-8.63-1.25-17.18-3.8-25.4-0.82-3.72-3.05-6.97-6.23-9.07-2.46-1.5-5.26-2.36-8.15-2.51-9.92 0.77-19.87-1.36-28.53-6.27-8.37-4.57-14.93-11.91-18.5-20.75a48.277 48.277 0 0 1-2.51-26.43 39.503 39.503 0 0 1 12.9-22.52l1.21-2.93 1.59-2.74c2.07-3.16 3.15-6.87 3.1-10.65a46.584 46.584 0 0 0-9.95-18.59l-5.09-4.97a42.165 42.165 0 0 0-23.52-14.12c-3.51-0.14-7.02 0.29-10.4 1.29a23.872 23.872 0 0 0-7.19 5.34 48.724 48.724 0 0 1-19.79 11.87 38.604 38.604 0 0 1-27.28 0 33.07 33.07 0 0 1-19.76-16.99c-4.05-7.78-6.27-16.59-6.27-25.36 0.66-6.49-2.37-12.8-7.85-16.33-7.34-3.65-15.59-5.16-23.81-4.39a70.74 70.74 0 0 0-26.98 5.34 12.517 12.517 0 0 0-7.59 10.09l0.07 3.37c0.44 9.4-1.66 18.69-5.93 27.06-4.17 8.59-11.32 15.33-20.05 19.09-9.03 3.83-19.06 4.46-28.53 1.88-9.22-2.1-17.47-7.22-23.55-14.41a17.134 17.134 0 0 0-20.02-2.8c-8.29 4.68-15.59 10.87-21.64 18.14a53.522 53.522 0 0 0-13.82 24.18 9.832 9.832 0 0 0 0 6.64c2 3.53 4.81 6.53 8.18 8.77a44.085 44.085 0 0 1 13.53 19.65c2.8 8.15 2.8 16.92 0 25.07a27.131 27.131 0 0 1-9.73 13.53c-9.4 6.27-20.13 10.43-31.37 12.24-3.88 0.83-7.53 2.53-10.65 4.98a39.312 39.312 0 0 0-6.48 19.48l0.21 6.95c-0.3 9.79 1.85 19.5 6.27 28.24 1.17 2.54 3.02 4.71 5.34 6.27a7.02 7.02 0 0 0 6.27 1.59c9.84 0.1 19.56 2.23 28.53 6.27 18.32 7.84 26.97 28.92 19.43 47.37a56.644 56.644 0 0 1-14.38 24.18 9.519 9.519 0 0 0-2.88 8.15c-0.04 3.76 0.6 7.49 1.88 11.02a72.224 72.224 0 0 0 14.45 20.75 34.639 34.639 0 0 0 21.31 12.24c4.96 0.3 9.73-1.95 12.64-5.97a49.25 49.25 0 0 1 22.85-12.98 46.673 46.673 0 0 1 26.95 0c7.25 3.3 13.28 8.71 17.35 15.45l2.67 5.3a95.614 95.614 0 0 1 7.85 20.75c0.15 2.1 0.15 4.17 0 6.27 0.22 2.01 1.1 3.89 2.51 5.35 6.84 4.82 14.94 7.46 23.21 7.6z"  horiz-adv-x="1024" />
      
      <glyph glyph-name="a-52_generate_datahub_config" unicode="&#59063;" d="M752.12 723.86l0.06-62.79-42.18-5.15c-122.01-14.88-280.27-88.07-380.59-181.7l-15.49-15.07 76.16 28.24 42.78 14.53c81.12 26.41 157.8 44.77 234.36 54.05l32.82 3.42 52.16 4.53-0.06-77.44 135.3 115.71-135.32 121.67zM516.97 879.57c26.51 0 48-21.49 48-48 0-24.3-18.06-44.38-41.49-47.56l-6.51-0.44H133.56c-7.48 0-13.78-5.14-15.52-12.11l-0.47-3.62v-320.27c-0.44-26.51-22.29-47.63-48.8-47.19-24.3 0.41-44.07 18.8-46.86 42.28l-0.33 6.52V769.45c0.97 57.9 45.75 104.93 102.43 109.72l9.55 0.4h383.41z m200.02-15.93c12.51 0 24.65-3.86 34.81-10.95l5.84-4.64 207.54-186.7c30.66-27.58 35.03-73.48 11.45-106.18l-5.48-6.79-4.59-4.69-210.04-179.87c-25.51-21.83-63.89-18.85-85.73 6.67a60.83 60.83 0 0 0-13.99 30.91l-0.61 8.62-0.06 47.6-7.66-1.15c-50.15-7.8-101.11-19.87-154.25-35.91l-32.15-10.09-32.74-11.03-16.93-6.06-144.14-54.2-14.69-4.91c-21.29-6.66-35.9-9.04-51.08-6.5-48.18 8.07-55.55 50.9-38.19 86.82 73.55 152.18 282.92 279.57 463.69 323.6l17.98 4.12 10.16 2.09 0.06 58.56c0.06 28.73 20.04 52.79 46.87 59.08l6.84 1.19 7.09 0.41z m179.2-560.07c26.51 0 48-21.49 48-48 0-24.3-18.06-44.38-41.49-47.56l-6.51-0.44h-384c-26.51 0-48 21.49-48 48 0 24.3 18.06 44.38 41.49 47.56l6.51 0.44h384z m0-152c26.51 0 48-21.49 48-48 0-24.3-18.06-44.38-41.49-47.56l-6.51-0.44h-384c-26.51 0-48 21.49-48 48 0 24.3 18.06 44.38 41.49 47.56l6.51 0.44h384z m-717.57-3.63a66.854 66.854 0 0 1-37.99-35.15 66.852 66.852 0 0 1-1.52-51.73 62.542 62.542 0 0 1 38.26-38.96 62.605 62.605 0 0 1 53.01 0 72.306 72.306 0 0 1 32.43 29.6l3.99 8.04c2.73 8.81 3.94 17.8 3.39 26.72 0.15 8.59-1.66 17.21-5.35 25.07-3.5 7.7-8.18 14.74-13.79 21.01a59.528 59.528 0 0 1-21.01 15.41 66.231 66.231 0 0 1-51.42-0.01z m717.57-148.37c26.51 0 48-21.49 48-48 0-24.3-18.06-44.38-41.49-47.56l-6.51-0.44h-384c-26.51 0-48 21.49-48 48 0 24.3 18.06 44.38 41.49 47.56l6.51 0.44h384zM202.7 296.67999999999995l6.22-0.37c9.02-0.3 17.93-2.1 26.36-5.34 3.03-1.09 5.37-3.55 6.3-6.64 0.41-2.91 0.41-5.86 0-8.77a40.83 40.83 0 0 1 5.93-24.55 39.151 39.151 0 0 1 20.16-17.77c8.44-3.65 17.84-4.68 26.87-2.88a38.927 38.927 0 0 1 21.97 12.61c2.34 2.16 5.14 3.76 8.18 4.68 2.91 1.29 6.23 1.29 9.14 0 8.4-3.95 15.94-9.5 22.23-16.33 7.3-6.9 12.07-16.05 13.53-25.99-0.11-2.22-0.76-4.37-1.92-6.27a8.732 8.732 0 0 0-4.05-4.09c-6.89-5.82-11.72-13.75-13.79-22.6-2.29-9.14-1.77-18.73 1.55-27.57a39.366 39.366 0 0 1 18.5-19.79 67.428 67.428 0 0 1 28.57-5.97 9.21 9.21 0 0 0 7.52 0c1.83-0.92 3.38-2.28 4.53-3.94l1.4-2.69c2.24-6.83 3.22-14.08 2.73-21.31 0-8.63-1.25-17.18-3.8-25.4-0.82-3.72-3.05-6.97-6.23-9.07-2.46-1.5-5.26-2.36-8.15-2.51-9.92 0.77-19.87-1.36-28.53-6.27-8.37-4.57-14.93-11.91-18.5-20.75a48.277 48.277 0 0 1-2.51-26.43 39.503 39.503 0 0 1 12.9-22.52l1.21-2.93 1.59-2.74c2.07-3.16 3.15-6.87 3.1-10.65a46.584 46.584 0 0 0-9.95-18.59l-5.09-4.97a42.165 42.165 0 0 0-23.52-14.12c-3.51-0.14-7.02 0.29-10.4 1.29a23.872 23.872 0 0 0-7.19 5.34 48.724 48.724 0 0 1-19.79 11.87 38.604 38.604 0 0 1-27.28 0 33.07 33.07 0 0 1-19.76-16.99c-4.05-7.78-6.27-16.59-6.27-25.36 0.66-6.49-2.37-12.8-7.85-16.33-7.34-3.65-15.59-5.16-23.81-4.39a70.74 70.74 0 0 0-26.98 5.34 12.517 12.517 0 0 0-7.59 10.09l0.07 3.37c0.44 9.4-1.66 18.69-5.93 27.06-4.17 8.59-11.32 15.33-20.05 19.09-9.03 3.83-19.06 4.46-28.53 1.88-9.22-2.1-17.47-7.22-23.55-14.41a17.134 17.134 0 0 0-20.02-2.8c-8.29 4.68-15.59 10.87-21.64 18.14a53.522 53.522 0 0 0-13.82 24.18 9.832 9.832 0 0 0 0 6.64c2 3.53 4.81 6.53 8.18 8.77a44.085 44.085 0 0 1 13.53 19.65c2.8 8.15 2.8 16.92 0 25.07a27.131 27.131 0 0 1-9.73 13.53c-9.4 6.27-20.13 10.43-31.37 12.24-3.88 0.83-7.53 2.53-10.65 4.98a39.312 39.312 0 0 0-6.48 19.48l0.21 6.95c-0.3 9.79 1.85 19.5 6.27 28.24 1.17 2.54 3.02 4.71 5.34 6.27a7.02 7.02 0 0 0 6.27 1.59c9.84 0.1 19.56 2.23 28.53 6.27 18.34 7.8 26.98 28.89 19.44 47.33a56.644 56.644 0 0 1-14.38 24.18 9.519 9.519 0 0 0-2.88 8.15c-0.04 3.76 0.6 7.49 1.88 11.02a72.224 72.224 0 0 0 14.45 20.75 34.639 34.639 0 0 0 21.31 12.24c4.96 0.3 9.73-1.95 12.64-5.97a49.25 49.25 0 0 1 22.85-12.98 46.673 46.673 0 0 1 26.95 0c7.25 3.3 13.28 8.71 17.35 15.45l2.67 5.3a95.614 95.614 0 0 1 7.85 20.75c0.15 2.1 0.15 4.17 0 6.27 0.22 2.01 1.1 3.89 2.51 5.35 6.82 4.86 14.92 7.5 23.2 7.64z"  horiz-adv-x="1024" />
      
      <glyph glyph-name="a-53_y2ystream_delete" unicode="&#59064;" d="M914.1 788.12c6.7-6.69 7.81-16.84 3.35-24.68l-3.35-4.38-29.09-29.07 29.08-29.05c6.69-6.68 7.81-16.82 3.35-24.66l-3.35-4.39c-6.68-6.68-16.83-7.8-24.66-3.34l-4.39 3.35-29.05 29.08-29.07-29.09c-6.68-6.69-16.83-7.8-24.67-3.35l-4.38 3.35c-6.68 6.68-7.8 16.82-3.34 24.66l3.35 4.39 29.1 29.06-29.1 29.07c-6.69 6.68-7.8 16.82-3.35 24.66l3.35 4.39c6.68 6.68 16.82 7.8 24.66 3.34l4.39-3.35 29.07-29.1 29.06 29.1c8.02 8.01 21.02 8.02 29.04 0.01z m-58.22 38c-53.02 0-96-42.98-96-96s42.98-96 96-96 96 42.98 96 96-42.99 96-96 96z m0 64c88.37 0 160-71.63 160-160s-71.63-160-160-160-160 71.63-160 160 71.63 160 160 160z m-416-224c-88.37 0-160-71.63-160-160s71.63-160 160-160 160 71.63 160 160-71.64 160-160 160z m0 96c141.38 0 256-114.62 256-256 0-125.08-89.7-229.2-208.28-251.56l0.28-4.44v-112h240c26.51 0 48-21.49 48-48 0-24.3-18.06-44.38-41.49-47.56l-6.51-0.44h-576c-26.51 0-48 21.49-48 48 0 24.3 18.06 44.38 41.49 47.56l6.51 0.44h240v112l0.28 4.44c-118.58 22.36-208.28 126.48-208.28 251.56 0 141.39 114.61 256 256 256z m384-752c26.51 0 48-21.49 48-48 0-24.3-18.06-44.38-41.49-47.56l-6.51-0.44h-768c-26.51 0-48 21.49-48 48 0 24.3 18.06 44.38 41.49 47.56l6.51 0.44h768z"  horiz-adv-x="1024" />
      
      <glyph glyph-name="a-54_y2ystream_reset" unicode="&#59065;" d="M720.19 883.57l5.73-0.7c15.36-3.28 25.78-17.07 25.32-32.24l-0.7-5.73-3.34-15c27.19 20.11 60.28 31.29 95.06 31.29 88.37 0 160-71.63 160-160s-71.63-160-160-160c-37.89 0-73.82 13.25-102.34 37.01-13.58 11.31-15.42 31.49-4.11 45.07 11.31 13.58 31.49 15.42 45.07 4.11 17.13-14.27 38.61-22.19 61.39-22.19 53.02 0 96 42.98 96 96s-42.98 96-96 96c-24 0-46.55-8.8-64.03-24.47l19.1-1.9c15.64-1.49 27.57-14 28.85-29.12l-0.03-5.78c-1.49-15.64-14-27.57-29.12-28.85l-5.78 0.03-86.81 8.47-1.08 0.21c-22.18 4.73-37 25.12-35.34 47.13l0.87 6.03 19.05 89.3c3.28 15.38 17.08 25.8 32.24 25.33zM448.05 669.2c-88.37 0-160-71.63-160-160s71.63-160 160-160 160 71.63 160 160c0 88.36-71.64 160-160 160z m0 96c141.38 0 256-114.62 256-256 0-125.08-89.7-229.2-208.28-251.56l0.28-4.44v-112h240c26.51 0 48-21.49 48-48 0-24.3-18.06-44.38-41.49-47.56l-6.51-0.44h-576c-26.51 0-48 21.49-48 48 0 24.3 18.06 44.38 41.49 47.56l6.51 0.44h240v112l0.28 4.44C281.75 279.99 192.05 384.12 192.05 509.2c0 141.38 114.61 256 256 256z m384-752c26.51 0 48-21.49 48-48 0-24.3-18.06-44.38-41.49-47.56l-6.51-0.44h-768c-26.51 0-48 21.49-48 48 0 24.3 18.06 44.38 41.49 47.56l6.51 0.44h768z"  horiz-adv-x="1024" />
      
      <glyph glyph-name="a-55_y2ysync" unicode="&#59066;" d="M668.75 751.69c11.37-59.12 17.75-98.94 19.13-119.44 4.38 32.38 11.69 72.19 21.94 119.44h72.56L724.81 558v-109.88h-73.13V558l-55.5 193.69h72.57z m-171 5.81c30.12 0 52.91-7.47 68.34-22.41 15.44-14.94 23.16-33.84 23.16-56.72 0-17.38-4.34-35.75-13.03-55.13-8.69-19.38-34.28-60.5-76.78-123.38h83.06v-51.75H415.81v43.31c49.38 80.75 78.72 130.72 88.03 149.91 9.31 19.19 13.97 34.16 13.97 44.91 0 8.25-1.41 14.41-4.22 18.47-2.81 4.06-7.09 6.09-12.84 6.09s-10.03-2.25-12.84-6.75c-2.81-4.5-4.22-13.44-4.22-26.81v-28.87h-67.88v11.06c0 17 0.88 30.41 2.63 40.22 1.75 9.81 6.06 19.47 12.94 28.97s15.81 16.69 26.81 21.56c11 4.88 24.18 7.32 39.56 7.32z m-203.44-5.81c11.38-59.12 17.75-98.94 19.12-119.44 4.37 32.38 11.69 72.19 21.94 119.44h72.56L350.37 558v-109.88h-73.12V558l-55.5 193.69h72.56zM944 880.12c35.35 0 64-28.65 64-64v-368c0-26.51-21.49-48-48-48-24.3 0-44.38 18.06-47.56 41.49l-0.44 6.51v323.2c0 7.07-5.73 12.8-12.8 12.8H124.8c-7.07 0-12.8-5.73-12.8-12.8v-774.4c0-7.07 5.73-12.8 12.8-12.8H512c24.3 0 44.38-18.06 47.56-41.49l0.44-6.51c0-24.3-18.06-44.38-41.49-47.56l-6.51-0.44H80c-35.35 0-64 28.65-64 64v864c0 35.35 28.65 64 64 64h864z m-49.12-495.36c20.92 0 38.67-15.85 41.72-36.02l0.46-6.17v-248.01l6.39 11.51c7.67 14.06 21.73 23.01 37.07 23.01 7.67 0 15.34-2.56 21.73-6.39 18.6-12.78 26.62-37.19 17.37-56.89l-3.3-5.75-81.82-154.69c-5.11-17.9-20.45-30.68-39.63-30.68-20.92 0-38.67 15.85-41.72 36.02l-0.46 6.17V342.58000000000004c0 23.01 19.18 42.18 42.19 42.18z m-168.75 0c20.45 0 37.07-15.34 40.91-34.52 0-2.56 0.57-3.98 0.95-5.4l0.33-2.27v-428.26c0-23.01-19.18-42.19-42.19-42.19-20.92 0-38.67 15.85-41.72 36.02l-0.46 6.17V162.32000000000005l-5.11-10.23c-7.67-14.06-21.73-23.01-37.07-23.01-7.67 0-15.34 2.56-21.73 6.39-18.59 11.62-25.57 36.98-18.04 57.82l2.7 6.1 81.82 154.69c5.1 17.9 20.44 30.68 39.61 30.68z"  horiz-adv-x="1024" />
      
      <glyph glyph-name="a-56_add_classification" unicode="&#59067;" d="M975.52367 895.500244c26.497062 0 47.976574-21.479512 47.976574-47.976574s-21.479512-47.976574-47.976574-47.976574H559.726696c-26.497062 0-47.976574 21.479512-47.976574 47.976574s21.479512 47.976574 47.976574 47.976574h415.796974z m0-255.875061c26.497062 0 47.976574-21.479512 47.976574-47.976574s-21.479512-47.976574-47.976574-47.976574H559.726696c-26.497062 0-47.976574 21.479512-47.976574 47.976574s21.479512 47.976574 47.976574 47.976574h415.796974zM733.951625 311.69530499999996c24.288141 0 44.358341-18.051186 47.536789-41.469751l0.439785-6.506823-0.03998-55.842733 55.922694-0.03998c26.497062 0 47.976574-21.479512 47.976574-47.976574 0-24.288141-18.051186-44.358341-41.469752-47.536789l-6.506822-0.439785-55.922694 0.03998 0.03998-55.922694c0-26.497062-21.479512-47.976574-47.976574-47.976574-24.288141 0-44.358341 18.051186-47.536788 41.469751l-0.439786 6.506823-0.03998 55.922694-55.842733-0.03998c-26.497062 0-47.976574 21.479512-47.976574 47.976574 0 24.288141 18.051186 44.358341 41.469751 47.536788l6.506823 0.439786 55.842733 0.03998 0.03998 55.842733c0 26.497062 21.479512 47.976574 47.976574 47.976574zM735.6408 351.76573900000005c-105.988248 0-191.906296-85.918048-191.906295-191.906295s85.918048-191.906296 191.906295-191.906296 191.906296 85.918048 191.906296 191.906296-85.918048 191.906296-191.906296 191.906295z m0 95.953148c158.982372 0 287.859444-128.877072 287.859444-287.859443s-128.877072-287.859444-287.859444-287.859444-287.859444 128.877072-287.859443 287.859444 128.877072 287.859444 287.859443 287.859443zM334.676584 895.500244C361.813333 895.500244 383.812592 873.500986 383.812592 846.364236c0-24.867857-18.480976-45.427818-42.459268-48.676232l-6.666745-0.44978-234.555471 0.01999v-826.986198h234.555471c27.13675 0 49.136008-21.999258 49.136008-49.136008 0-27.13675-21.999258-49.136008-49.136008-49.136008H63.968765c-35.332748 0-63.968765 28.636018-63.968765 63.968765v895.562714C0 866.864226 28.636018 895.500244 63.968765 895.500244h270.707819z"  horiz-adv-x="1024" />
      
      <glyph glyph-name="a-57_CreateVirtualAttributeAction" unicode="&#59068;" d="M912.304539 863.515861c26.497062 0 47.976574-21.479512 47.976574-47.976574s-21.479512-47.976574-47.976574-47.976573h-479.76574c-26.497062 0-47.976574 21.479512-47.976574 47.976573s21.479512 47.976574 47.976574 47.976574h479.76574z m-751.632992-63.968765h-63.968765v-63.968765h63.968765v63.968765z m31.984383 95.953148c35.332748 0 63.968765-28.636018 63.968765-63.968765v-127.937531c0-35.332748-28.636018-63.968765-63.968765-63.968765h-127.937531c-35.332748 0-63.968765 28.636018-63.968765 63.968765v127.937531c0 35.332748 28.636018 63.968765 63.968765 63.968765h127.937531z m719.648609-415.796974c26.497062 0 47.976574-21.479512 47.976574-47.976574s-21.479512-47.976574-47.976574-47.976574h-479.76574c-26.497062 0-47.976574 21.479512-47.976574 47.976574s21.479512 47.976574 47.976574 47.976574h479.76574z m-751.632992-63.968765h-63.968765v-63.968766h63.968765v63.968766z m31.984383 95.953148c35.332748 0 63.968765-28.636018 63.968765-63.968766v-127.93753c0-35.332748-28.636018-63.968765-63.968765-63.968765h-127.937531c-35.332748 0-63.968765 28.636018-63.968765 63.968765v127.93753c0 35.332748 28.636018 63.968765 63.968765 63.968766h127.937531z m-31.984383-479.76574h-63.968765v-63.968765h63.968765v63.968765z m511.750122 319.843826c26.497062 0 47.976574-21.479512 47.976574-47.976574v-127.93753h127.937531c26.497062 0 47.976574-21.479512 47.976573-47.976574s-21.479512-47.976574-47.976573-47.976574h-127.937531v-127.93753c0-26.497062-21.479512-47.976574-47.976574-47.976574s-47.976574 21.479512-47.976574 47.976574v127.93753h-127.93753c-26.497062 0-47.976574 21.479512-47.976574 47.976574s21.479512 47.976574 47.976574 47.976574h127.93753v127.93753c0 26.497062 21.479512 47.976574 47.976574 47.976574z m-479.765739-223.890678c35.332748 0 63.968765-28.636018 63.968765-63.968765v-127.937531c0-35.332748-28.636018-63.968765-63.968765-63.968765h-127.937531c-35.332748 0-63.968765 28.636018-63.968765 63.968765v127.937531c0 35.332748 28.636018 63.968765 63.968765 63.968765h127.937531z"  horiz-adv-x="1024" />
      
      <glyph glyph-name="a-58_audit_download" unicode="&#59069;" d="M592.2 447.48c26.51 0 48-21.49 48-48s-21.49-48-48-48h-288c-26.51 0-48 21.49-48 48s21.49 48 48 48h288z m0-256c26.51 0 48-21.49 48-48s-21.49-48-48-48h-288c-26.51 0-48 21.49-48 48s21.49 48 48 48h288z m257.78 352c20.4 0 40.89-16.5 44.45-34.58l0.54-5.46v-407.58l-0.16-3.06-0.48-3.06h74.95c16.43 0 26.95-14.55 21.45-27.21l-2.44-4.13L869.1-87.5c-8.11-10.7-24.8-11.89-34.81-3.5l-3.41 3.6-119.2 145.91c-9.18 12.04-1.23 27.79 13.76 30.83l5.24 0.52h74.95l-0.48 3.06-0.16 3.06V503.45c0 19.97 22.44 40.03 44.99 40.03zM909.2 895.48c28.17 0 51-22.83 51-51s-22.83-51-51-51h-529l-20-20v-132c0-29.33-10-54-30-74s-44-30-72-30h-134l-20-20v-542h472c34.67 0 52-16.67 52-50 0-34.67-17.33-52-52-52h-522c-34.67 0-52 17.33-52 52v612c0 13.33 5.33 25.33 16 36l306 308c9.33 9.33 21.33 14 36 14h549z"  horiz-adv-x="1024" />
      
      <glyph glyph-name="a-59_generate_meta" unicode="&#59070;" d="M751.87 723.54l0.06-62.79-42.19-5.14c-122.01-14.88-280.27-88.07-380.59-181.7l-15.49-15.07 76.16 28.24 42.78 14.53c81.12 26.41 157.8 44.77 234.36 54.05l32.82 3.42 52.16 4.53-0.06-77.44 135.3 115.71-135.31 121.66zM716.74 863.32c12.51 0 24.65-3.86 34.81-10.95l5.84-4.64 207.54-186.7c30.66-27.58 35.03-73.48 11.45-106.18l-5.48-6.79-4.59-4.69L756.27 363.5c-25.51-21.83-63.89-18.85-85.73 6.67a60.83 60.83 0 0 0-13.99 30.91l-0.61 8.62-0.06 47.6-7.66-1.15c-50.15-7.8-101.11-19.87-154.25-35.91l-32.15-10.09-32.74-11.03-16.93-6.06-144.14-54.2-14.69-4.91c-21.29-6.66-35.9-9.04-51.08-6.5-48.18 8.07-55.55 50.9-38.19 86.82 73.55 152.18 282.92 279.57 463.69 323.6l17.98 4.12 10.16 2.09 0.06 58.56c0.06 28.73 20.04 52.79 46.87 59.08l6.84 1.19 7.09 0.41z m-188.8-0.07c26.51 0 48-21.49 48-48 0-24.3-18.06-44.38-41.49-47.56l-6.51-0.44h-400v-400c0-24.3-18.06-44.38-41.49-47.56l-6.51-0.44c-24.3 0-44.38 18.06-47.56 41.49l-0.44 6.51v432c0 35.35 28.65 64 64 64h432zM868.5 210.22000000000003l-7.46-56-5.56-46.19-4.48-46.34h31.5l-2 17.76-4 38.98-4 43.59-4 48.2z m62.78 79.19L984-64.75h-94.28l-4.59 63.66H852.1l-5.47-63.66h-95.37l46.81 354.16h133.21z m-162.09 0v-70.87H714.5v-283.28h-92.09V218.52999999999997h-54.47V289.4h201.25z m-212.19 0v-70.87h-61.47v-67.16h57.53V84h-57.53v-77.88h67.59v-70.88H403.44V289.40999999999997H557z m-355.47 0l4.31-27.37 19.54-138.01 21 165.37h120.09v-354.16h-80.5v239.1l-32.16-239.09h-57.09l-33.91 233.62v-233.62h-80.5V289.40999999999997h119.22z"  horiz-adv-x="1024" />
      
      <glyph glyph-name="a-60_type_match" unicode="&#59071;" d="M895.562714 799.547096c-17.661376 0-31.984383-14.323006-31.984383-31.984382s14.323006-31.984383 31.984383-31.984383 31.984383 14.323006 31.984382 31.984383-14.323006 31.984383-31.984382 31.984382z m-767.625183 0c-17.661376 0-31.984383-14.323006-31.984383-31.984382s14.323006-31.984383 31.984383-31.984383 31.984383 14.323006 31.984382 31.984383-14.323006 31.984383-31.984382 31.984382z m0-767.625183c-17.661376 0-31.984383-14.323006-31.984383-31.984382s14.323006-31.984383 31.984383-31.984383 31.984383 14.323006 31.984382 31.984383-14.323006 31.984383-31.984382 31.984382z m767.625183 95.953148c70.6555 0 127.937531-57.28203 127.93753-127.93753s-57.28203-127.937531-127.93753-127.937531-127.937531 57.28203-127.937531 127.937531 57.28203 127.937531 127.937531 127.93753z m0 767.625183c70.6555 0 127.937531-57.28203 127.93753-127.93753 0-54.033616-33.503641-100.251049-80.860517-119.001894l0.459775-2.428814 0.439785-6.506823v-415.796974c0-26.497062-21.479512-47.976574-47.976573-47.976574-24.288141 0-44.358341 18.051186-47.536789 41.469751l-0.439785 6.506823v415.796974c0 3.088492 0.289858 6.107018 0.849585 9.025593-2.788638 1.029497-5.577277 2.258897-8.305945 3.568258L247.389204 45.845114999999964c5.477326-14.253041 8.485857-29.725486 8.485857-45.907584 0-70.6555-57.28203-127.937531-127.93753-127.937531S0-70.71797000000004 0-0.06246899999996458c0 53.693782 33.073851 99.661337 79.960957 118.642069V639.625183c0 3.088492 0.289858 6.107018 0.849585 9.025593C33.503641 667.3116640000001 0 713.529097 0 767.562714 0 838.218214 57.28203 895.500244 127.937531 895.500244s127.937531-57.28203 127.93753-127.93753c0-54.033616-33.503641-100.251049-80.860517-119.001894l0.459775-2.428814 0.439785-6.506823 0.059971-521.075569 5.897121-2.568745 593.590161 607.383426c-5.067526 13.773275-7.836174 28.666003-7.836174 44.198419 0 70.6555 57.28203 127.937531 127.937531 127.93753z"  horiz-adv-x="1024" />
      
      </font>
</defs>
</svg>
