<svg xmlns="http://www.w3.org/2000/svg" width="16" height="16" viewBox="0 0 16 16"><path fill="#FFF" d="M5.156 1.875c.146 0 .219.073.219.219v3.062c0 .146-.073.219-.219.219h-3.062c-.146 0-.219-.073-.219-.219v-3.062c0-.146.073-.219.219-.219h3.062zm4.375 0c.146 0 .219.073.219.219v3.062c0 .146-.072.219-.219.219h-3.062c-.146 0-.219-.073-.219-.219v-3.062c0-.146.073-.219.219-.219h3.062zm4.375 0c.146 0 .219.073.219.219v3.062c0 .146-.072.219-.219.219h-3.062c-.146 0-.219-.073-.219-.219v-3.062c0-.146.072-.219.219-.219h3.062zm-8.75 4.375c.146 0 .219.073.219.219v3.062c0 .146-.073.219-.219.219h-3.062c-.146 0-.219-.072-.219-.219v-3.062c0-.146.073-.219.219-.219h3.062zm4.375 0c.146 0 .219.073.219.219v3.062c0 .146-.072.219-.219.219h-3.062c-.146 0-.219-.072-.219-.219v-3.062c0-.146.073-.219.219-.219h3.062zm4.375 0c.146 0 .219.073.219.219v3.062c0 .146-.072.219-.219.219h-3.062c-.146 0-.219-.072-.219-.219v-3.062c0-.146.072-.219.219-.219h3.062zm-8.75 4.375c.146 0 .219.072.219.219v3.062c0 .146-.073.219-.219.219h-3.062c-.146 0-.219-.072-.219-.219v-3.062c0-.146.073-.219.219-.219h3.062zm4.375 0c.146 0 .219.072.219.219v3.062c0 .146-.072.219-.219.219h-3.062c-.146 0-.219-.072-.219-.219v-3.062c0-.146.073-.219.219-.219h3.062zm4.375 0c.146 0 .219.072.219.219v3.062c0 .146-.072.219-.219.219h-3.062c-.146 0-.219-.072-.219-.219v-3.062c0-.146.072-.219.219-.219h3.062z"/></svg>