<svg xmlns="http://www.w3.org/2000/svg" width="16" height="16" viewBox="0 0 16 16"><path fill="#FFF" d="M7.125 8.407v3.5h.905c.028-.188.076-.354.143-.496.115-.245.543-.369.702-.369h5.25c.17 0 .602.124.711.369.109.246.164.56.164.943 0 .356-.055.664-.164.924s-.541.389-.711.389h-5.25c-.158 0-.586-.129-.702-.389-.066-.15-.114-.314-.142-.496h-1.781v-8.312h-4.083c-.316 0-.589-.129-.82-.389s-.347-.568-.347-.924c0-.382.116-.697.347-.942.231-.247.504-.37.82-.37h11.667c.34 0 .62.123.838.37.22.245.328.56.328.942 0 .355-.108.664-.328.924-.218.26-.498.389-.838.389h-6.709v3.062h.906c.028-.186.076-.35.142-.491.115-.247.543-.37.702-.37h5.25c.17 0 .602.124.711.37.109.246.164.561.164.942 0 .356-.055.665-.164.923-.109.262-.541.39-.711.39h-5.25c-.158 0-.586-.128-.702-.39-.067-.15-.115-.316-.143-.5h-.905z"/></svg>