<svg xmlns="http://www.w3.org/2000/svg" width="16" height="16" viewBox="0 0 16 16"><path fill="#32363A" d="M3.174 2.312c.292 0 .438.146.438.438s-.147.438-.438.438-.438-.146-.438-.438.146-.438.438-.438zm0 2.626c.292 0 .438.146.438.438s-.147.436-.438.436-.438-.145-.438-.437.146-.437.438-.437zm0 2.624c.292 0 .438.146.438.438s-.147.438-.438.438-.438-.146-.438-.438.146-.438.438-.438zm0 2.626c.292 0 .438.146.438.438s-.146.438-.438.438-.438-.146-.438-.438.146-.438.438-.438zm0 2.624c.292 0 .438.146.438.438s-.146.438-.438.438-.438-.146-.438-.438.146-.438.438-.438zm2.625-9.624c-.292 0-.438-.146-.438-.438s.146-.438.438-.438h7.027c.109 0 .209.041.301.123s.137.187.137.314-.045.232-.137.314-.191.123-.301.123h-7.027zm7.027 1.75c.109 0 .209.041.301.123s.137.187.137.314-.045.232-.137.314-.191.123-.301.123h-7.027c-.292 0-.438-.146-.438-.438s.146-.438.438-.438h7.027zm0 2.624c.109 0 .209.041.301.123s.137.188.137.315-.045.232-.137.314-.191.123-.301.123h-7.027c-.292.001-.438-.145-.438-.437s.146-.438.438-.438h7.027zm0 2.626c.109 0 .209.041.301.123s.137.188.137.314-.045.232-.137.314-.191.123-.301.123h-7.027c-.292 0-.438-.146-.438-.438s.146-.438.438-.438h7.027zm0 2.624c.109 0 .209.041.301.123s.137.188.137.314-.045.232-.137.314-.191.123-.301.123h-7.027c-.292 0-.438-.146-.438-.438s.146-.438.438-.438h7.027z"/></svg>