<svg version="1" xmlns="http://www.w3.org/2000/svg" width="28" height="28" viewBox="0 0 28 28"><path fill="#fff" d="M20.125 13.562v.875c0 .292-.146.438-.438.438h-4.813v4.812c0 .292-.146.438-.438.438h-.875c-.109 0-.209-.041-.301-.123s-.137-.187-.137-.314v-4.812h-4.811c-.109 0-.21-.041-.301-.123-.091-.082-.137-.187-.137-.314v-.875c0-.127.045-.232.137-.314.091-.082.191-.123.301-.123h4.812v-4.815c0-.127.045-.232.137-.314s.191-.123.301-.123h.875c.291 0 .438.146.438.438v4.812h4.813c.291 0 .437.146.437.437z"/></svg>