<svg xmlns="http://www.w3.org/2000/svg" width="28" height="28" viewBox="0 0 28 28"><path fill="#32363A" d="M19 7.5c.262-.001.512.099.699.279.195.189.302.45.301.721v12c.001.271-.106.531-.301.721-.188.181-.438.28-.699.279h-10c-.553 0-1-.448-1-1v-12c0-.552.447-1 1-1h2.091c.087-.248.239-.468.44-.641.199-.188.45-.314.72-.359.182-.302.44-.55.75-.721.3-.184.646-.279.999-.279.352-.002.699.093 1 .279.294.186.536.442.699.751.272.032.526.147.729.329.205.175.37.394.481.641h2.091zm0 1h-2.09c-.066.232-.187.443-.352.619-.188.239-.476.38-.779.381h-3.561c-.314.009-.614-.131-.809-.381-.139-.188-.248-.397-.32-.619h-2.089v12h10v-12zm-6.5-1c-.24-.036-.464.13-.5.371v.129c-.037.241.131.464.371.5h3.129c.241.036.465-.13.5-.371v-.129c.035-.241-.13-.464-.371-.5h-.629c.001-.271-.106-.532-.301-.721-.392-.388-1.026-.381-1.414.015-.182.188-.286.442-.285.706h-.5zm1.14 7.73v2.089h-.64v-.5c-.115.188-.286.332-.49.413-.236.101-.493.154-.75.149-.351.01-.698-.083-1-.261-.277-.17-.5-.418-.64-.711-.143-.313-.217-.653-.219-1 0-.348.082-.688.24-1 .147-.288.381-.527.669-.679.31-.196.665-.309 1.03-.33.344-.012.686.055 1 .2.272.129.503.328.67.578l-.61.462c-.107-.166-.25-.303-.421-.4-.187-.101-.396-.154-.61-.149-.214-.007-.426.05-.61.161-.174.102-.315.255-.4.438-.095.214-.143.445-.139.682-.006.237.038.471.13.688.078.174.199.325.35.44.179.114.388.172.6.168.188.006.375-.027.551-.099.155-.052.294-.145.399-.271.099-.113.153-.259.151-.41h-.901v-.658h1.64zm1.48 1.89c-.288-.168-.521-.413-.67-.71-.15-.314-.229-.654-.23-1-.002-.35.08-.691.24-1 .147-.295.383-.537.67-.69.311-.159.652-.241 1-.239.351-.003.691.08 1 .239.29.158.528.398.682.69.16.309.24.651.24 1 .004.366-.081.725-.25 1.049-.154.302-.394.548-.688.711-.307.169-.649.256-1 .25-.355-.012-.696-.116-.994-.3zm1.66-.62c.171-.118.305-.279.39-.469.092-.215.135-.448.13-.682.002-.229-.046-.459-.14-.671-.08-.189-.221-.348-.399-.448-.176-.115-.383-.17-.591-.162-.211-.007-.421.05-.601.162-.177.104-.315.261-.399.448-.109.216-.166.451-.169.691-.007.234.041.466.14.681.08.194.219.359.399.469.175.114.383.168.59.159.229.012.459-.049.65-.178z"/></svg>