<svg version="1" xmlns="http://www.w3.org/2000/svg" width="28" height="28" viewBox="0 0 28 28"><path fill="#32363a" d="M15.9 14.875l1.285-5.25h-1.641c-.164.273-.373.483-.629.629v9.871h3.063c.109 0 .209.041.301.123s.137.187.137.314-.045.232-.137.314-.191.124-.3.124h-7.875c-.292 0-.438-.146-.438-.438 0-.292.146-.438.438-.438h3.062v-9.871c-.273-.127-.492-.337-.656-.629h-1.695l1.312 5.25h.109c-.109.511-.359.93-.752 1.258s-.852.492-1.38.492-.994-.164-1.395-.492c-.401-.328-.656-.747-.766-1.258h.137l1.285-5.25h-.136c-.292 0-.438-.146-.438-.438 0-.292.146-.438.438-.438h3.062c0-.474.168-.884.506-1.23.337-.345.751-.518 1.244-.518.475 0 .885.173 1.231.52.346.347.52.757.52 1.23h3.062c.109 0 .209.041.301.123s.137.187.137.314c0 .128-.045.232-.137.314s-.191.123-.301.123h-.191l1.285 5.25h.109c-.092.511-.338.93-.738 1.258s-.865.492-1.395.492-.994-.164-1.395-.492-.646-.747-.738-1.258h.109zm-5.523-5.25h-.574l-1.285 5.25h3.144l-1.285-5.25zm3.664 0c.236 0 .441-.082.615-.246s.26-.374.26-.629-.086-.465-.26-.629-.379-.246-.615-.246c-.256 0-.465.082-.629.246s-.246.374-.246.629.082.465.246.629.373.246.629.246zm2.324 5.25h3.117l-1.285-5.25h-.547l-1.285 5.25z"/></svg>