<svg version="1" xmlns="http://www.w3.org/2000/svg" width="16" height="16" viewBox="20 20 16 16" enable-background="new 20 20 16 16"><g><path opacity=".16" fill="#383E51" enable-background="new" d="M28 20c-2.204 0-4.2.892-5.647 2.333l1.506 1.512c1.061-1.058 2.524-1.711 4.141-1.711 3.239 0 5.866 2.626 5.866 5.866 0 3.239-2.627 5.866-5.866 5.866-1.624 0-3.092-.659-4.155-1.726l-1.512 1.507c1.449 1.454 3.453 2.353 5.667 2.353 4.419 0 8-3.581 8-8 0-4.418-3.581-8-8-8z"/><path fill="#0A6ED1" d="M22.134 28c0-1.624.66-3.092 1.726-4.155l-1.506-1.511c-1.454 1.448-2.354 3.452-2.354 5.666 0 2.204.892 4.2 2.333 5.647l1.512-1.507c-1.057-1.06-1.711-2.524-1.711-4.14z"/></g></svg>