<svg version="1" xmlns="http://www.w3.org/2000/svg" width="28" height="28" viewBox="0 0 28 28"><path fill="#0a6ed1" d="M19.312 7c.457 0 .854.162 1.188.484.333.324.5.724.5 1.204v10.625c0 .479-.167.881-.5 1.203-.334.323-.729.484-1.188.484h-8.656c-.125 0-.261-.052-.406-.156l-3.094-3.125c-.104-.083-.156-.208-.156-.375v-8.656c0-.479.161-.88.484-1.203.323-.323.724-.485 1.204-.485h10.624zm.688 1.688c0-.188-.068-.349-.203-.484-.136-.136-.297-.204-.485-.204h-1.312v4c0 .292-.1.531-.297.719-.198.187-.432.281-.703.281h-6c-.292 0-.531-.094-.719-.281-.188-.187-.281-.427-.281-.719v-4h-1.312c-.188 0-.35.068-.484.203-.137.136-.204.297-.204.485v8.469l2.844 2.844h.156v-4c0-.291.094-.53.281-.719.187-.188.427-.282.719-.282h4c.271 0 .505.094.703.281.197.188.297.428.297.719v4h2.312c.188 0 .349-.066.483-.203.137-.135.205-.297.205-.485v-10.624zm-9-.688v4h6v-4h-6zm5 12v-4h-4v4h4zm-2.25-3.5c.166 0 .25.084.25.25v1.5c0 .167-.084.25-.25.25h-.531c-.147 0-.219-.083-.219-.25v-1.5c0-.166.072-.25.219-.25h.531z"/></svg>