<svg xmlns="http://www.w3.org/2000/svg" width="28" height="28" viewBox="0 0 28 28"><path fill="#0A6ED1" d="M12.994 13.322c-.197.189-.295.408-.295.656s.098.467.295.655l4.866 4.709c.234.209.461.209.678 0 .217-.21.217-.429 0-.657l-4.717-4.535c-.119-.115-.119-.229 0-.344l4.688-4.537c.098-.095.146-.199.146-.312 0-.115-.049-.219-.146-.314-.1-.096-.208-.143-.324-.143-.119 0-.228.047-.324.143l-4.867 4.679zm-2.795-4.822c-.276 0-.5.225-.5.5v10c0 .275.224.5.5.5s.5-.225.5-.5v-10c0-.275-.224-.5-.5-.5z"/></svg>
