<svg version="1" xmlns="http://www.w3.org/2000/svg" width="22" height="22" viewBox="0 0 22 22"><path fill="#6f7b92" d="M11 .1c-6.02 0-10.9 4.882-10.9 10.9 0 6.021 4.88 10.9 10.9 10.9s10.9-4.88 10.9-10.9c0-6.018-4.88-10.9-10.9-10.9zm0 19.69c-4.858 0-8.791-3.93-8.791-8.79 0-4.857 3.932-8.791 8.791-8.791 4.856 0 8.79 3.932 8.79 8.791s-3.93 8.79-8.79 8.79z"/><g><circle cx="11" cy="7.097" r="1.726" fill="#6f7b92"/><path fill="#6f7b92" d="M12.808 14.515h-.492v-4.108c0-.272-.222-.493-.494-.493h-2.63c-.272 0-.493.221-.493.493v.984c0 .271.221.493.493.493h.493v2.631h-.493c-.272 0-.493.219-.493.493v.986c0 .271.221.492.493.492h3.615c.271 0 .493-.221.493-.492v-.986c.001-.275-.221-.493-.492-.493z"/></g></svg>