<svg version="1" xmlns="http://www.w3.org/2000/svg" width="22" height="22" viewBox="0 0 22 22"><path fill="#6f7b92" d="M11 .1c-6.02 0-10.9 4.882-10.9 10.9 0 6.021 4.88 10.9 10.9 10.9s10.9-4.88 10.9-10.9c0-6.018-4.88-10.9-10.9-10.9zm0 19.69c-4.858 0-8.791-3.93-8.791-8.79 0-4.857 3.932-8.791 8.791-8.791 4.856 0 8.79 3.932 8.79 8.791s-3.93 8.79-8.79 8.79z"/><g><path fill="#6f7b92" d="M11.251 5.509c-1.73 0-2.841.72-3.714 2-.131.195-.09.46.099.604l1.027.778c.192.146.465.112.614-.078.556-.701.951-1.106 1.806-1.106.657 0 1.471.422 1.471 1.06 0 .481-.397.729-1.047 1.092-.755.423-1.756.951-1.756 2.271v.319c0 .244.198.443.443.443h1.685c.246 0 .443-.199.443-.443v-.233c0-.915 2.673-.953 2.673-3.428 0-1.866-1.934-3.279-3.744-3.279zM11.037 13.649c-.855 0-1.551.695-1.551 1.55 0 .855.695 1.551 1.551 1.551.854 0 1.55-.695 1.55-1.551 0-.854-.696-1.55-1.55-1.55z"/></g></svg>