<svg version="1" xmlns="http://www.w3.org/2000/svg" width="56" height="56" viewBox="0 0 56 56"><path opacity=".16" fill="#383E51" d="M28 0c-7.715 0-14.7 3.12-19.764 8.167l3.882 3.896c4.07-4.055 9.683-6.563 15.882-6.563 12.427 0 22.5 10.073 22.5 22.5s-10.073 22.5-22.5 22.5c-6.227 0-11.862-2.529-15.936-6.617l-3.896 3.883c5.07 5.086 12.083 8.234 19.832 8.234 15.465 0 28-12.535 28-28s-12.535-28-28-28z"/><path fill="#0A6ED1" d="M5.5 28c0-6.228 2.53-11.863 6.618-15.938l-3.882-3.895c-5.087 5.069-8.236 12.083-8.236 19.833 0 7.716 3.121 14.701 8.168 19.766l3.896-3.883c-4.056-4.07-6.564-9.683-6.564-15.883z"/></svg>