<?xml version="1.0" standalone="no"?>
<!DOCTYPE svg PUBLIC "-//W3C//DTD SVG 20010904//EN"
 "http://www.w3.org/TR/2001/REC-SVG-20010904/DTD/svg10.dtd">
<svg version="1.0" xmlns="http://www.w3.org/2000/svg"
 width="310.000000pt" height="310.000000pt" viewBox="0 0 310.000000 310.000000"
 preserveAspectRatio="xMidYMid meet">
<metadata>
Created by potrace 1.11, written by Peter Selinger 2001-2013
</metadata>
<g transform="translate(0.000000,310.000000) scale(0.100000,-0.100000)"
fill="#000000" stroke="none">
<path d="M0 1545 l0 -765 783 0 782 0 765 765 765 765 -1548 0 -1547 0 0 -765z
m517 494 c71 -10 211 -49 241 -68 19 -11 -87 -193 -108 -187 -8 3 -42 15 -75
27 -80 28 -199 31 -238 6 -16 -10 -31 -25 -34 -33 -13 -33 63 -82 192 -124
148 -48 230 -105 265 -183 10 -21 20 -35 23 -30 2 4 53 137 112 296 l108 287
132 0 133 0 30 -77 c16 -43 73 -200 128 -350 l99 -271 3 350 2 350 233 -4
c207 -4 239 -7 301 -27 86 -28 164 -100 185 -171 48 -162 4 -320 -108 -392
-65 -41 -131 -58 -248 -65 l-103 -6 0 -144 0 -143 -227 2 -226 3 -22 65 c-20
59 -24 65 -46 60 -37 -8 -241 -6 -271 3 -26 7 -27 5 -49 -63 l-23 -70 -139 0
c-107 0 -138 3 -134 13 21 56 21 55 -50 20 -113 -55 -222 -63 -379 -28 -73 17
-174 60 -174 74 0 23 85 181 95 177 181 -82 322 -87 357 -11 21 46 -12 73
-143 120 -184 66 -250 109 -292 189 -30 57 -30 174 0 231 44 84 134 146 247
170 77 17 106 18 203 4z"/>
<path d="M1792 1708 l3 -123 66 1 c81 2 126 23 145 69 20 48 18 77 -9 116 -26
39 -75 57 -155 58 l-53 1 3 -122z"/>
<path d="M1086 1576 c-26 -81 -44 -151 -41 -155 8 -7 171 -8 179 -1 3 3 -16
73 -43 155 l-47 150 -48 -149z"/>
</g>
</svg>
