<svg version="1" xmlns="http://www.w3.org/2000/svg" width="28" height="28" viewBox="0 0 28 28"><path fill="#32363a" d="M20.5 15.889c-.117.801-.366 1.542-.747 2.225-.38.685-.854 1.274-1.42 1.771-.566.498-1.215.894-1.946 1.187-.732.292-1.519.438-2.357.438-.898 0-1.742-.171-2.533-.513-.791-.344-1.484-.812-2.079-1.409-.596-.596-1.064-1.291-1.406-2.083-.342-.792-.512-1.649-.512-2.568 0-.88.161-1.711.483-2.493.322-.782.766-1.468 1.333-2.055.565-.587 1.229-1.057 1.991-1.409s1.582-.547 2.459-.587h1.786c.507 0 1.093-.009 1.757-.029l-1.2-1.054c-.099-.097-.146-.209-.146-.337 0-.126.048-.238.146-.336.097-.098.205-.146.322-.146.116 0 .224.049.321.146l1.698 1.493c.176.196.264.425.264.687s-.088.491-.264.689l-1.669 1.581c-.098.098-.205.146-.322.146-.116 0-.225-.049-.321-.146-.099-.098-.146-.209-.146-.337 0-.127.048-.238.146-.337l1.171-1.083h-3.279c-.781 0-1.508.146-2.181.439-.674.292-1.265.693-1.771 1.2-.508.508-.908 1.104-1.201 1.786-.292.684-.439 1.416-.439 2.195 0 .781.146 1.514.439 2.196.293.684.692 1.279 1.201 1.786.507.508 1.098.907 1.771 1.2.673.293 1.4.439 2.181.439.703 0 1.365-.117 1.991-.352.624-.234 1.175-.561 1.654-.98.478-.42.882-.912 1.215-1.479.331-.566.557-1.19.674-1.874h.936z"/></svg>