<svg version="1" xmlns="http://www.w3.org/2000/svg" width="16" height="16" viewBox="0.5 28.5 16 16" enable-background="new 0.5 28.5 16 16"><path fill="#0A6ED1" d="M15.339 28.5c.308 0 .569.103.798.32.227.215.34.479.34.785v13.709c0 .33-.113.616-.34.844-.229.228-.49.342-.798.342h-13.675c-.331 0-.604-.114-.821-.342s-.319-.501-.319-.844v-13.709c0-.307.103-.57.319-.785.216-.218.49-.32.821-.32h13.675zm0 1.141h-13.675v13.709h13.675v-13.709zm-4.56 12.57h-4.557v-1.143h1.174v-4.591h-1.141v-1.14h3.386v5.73h1.138v1.144zm-2.278-8.013c-.331 0-.604-.103-.821-.319-.216-.216-.319-.479-.319-.786 0-.331.103-.614.319-.832.217-.228.49-.342.821-.342.307 0 .569.114.797.342.228.228.343.501.343.832 0 .308-.115.57-.343.786-.228.217-.489.319-.797.319z"/></svg>