<svg version="1" xmlns="http://www.w3.org/2000/svg" width="16" height="16" viewBox="0.5 28.5 16 16" enable-background="new 0.5 28.5 16 16"><path fill="#0A6ED1" d="M1.5 30.499c.3 0 .5.101.699.3.201.201.301.4.301.701 0 .3-.099.499-.3.7-.2.199-.4.3-.7.3-.3 0-.5-.101-.7-.3-.199-.201-.3-.4-.3-.7 0-.301.101-.5.3-.701.2-.199.4-.3.7-.3zm0 5.001c.3 0 .5.101.699.3.201.201.3.4.3.7s-.099.499-.3.7c-.199.199-.399.3-.699.3-.3 0-.5-.101-.7-.3-.199-.201-.3-.4-.3-.7s.101-.499.3-.7c.2-.199.4-.3.7-.3zm0 5c.3 0 .5.101.699.3.201.201.3.4.3.7 0 .301-.099.5-.3.701-.199.199-.399.3-.699.3-.3 0-.501-.101-.701-.3-.198-.201-.299-.4-.299-.701 0-.3.101-.499.3-.7.2-.199.4-.3.7-.3zm4-8c-.3 0-.5-.101-.7-.3-.199-.201-.3-.4-.3-.7 0-.301.101-.5.3-.701.2-.199.4-.3.701-.3h10c.299 0 .5.101.7.3.198.201.299.4.299.701 0 .3-.101.499-.299.7-.2.199-.401.3-.7.3h-10.001zm0 5c-.3 0-.5-.101-.7-.3-.199-.201-.3-.4-.3-.7s.101-.499.3-.7c.2-.199.4-.3.7-.3h10c.299 0 .5.101.7.3.198.201.299.4.299.7s-.101.499-.299.7c-.2.199-.401.3-.7.3h-10zm0 5.001c-.3 0-.501-.101-.701-.3-.198-.201-.299-.5-.299-.701 0-.3.101-.499.3-.7.2-.199.4-.3.7-.3h10c.299 0 .5.101.7.3.198.201.299.4.299.7 0 .301-.101.5-.299.701-.2.199-.401.3-.7.3h-10z"/></svg>