<svg version="1" xmlns="http://www.w3.org/2000/svg" width="28" height="28" viewBox="0 0 28 28"><path fill="#515559" d="M16.18 14.988l1.744-7.126h-2.227c-.223.371-.507.656-.854.854v13.396h4.157c.148 0 .283.056.408.167.124.111.186.254.186.427s-.062.315-.186.427c-.125.111-.26.167-.408.167h-10.688c-.396 0-.594-.198-.594-.594s.198-.594.594-.594h4.156v-13.396c-.371-.172-.668-.458-.891-.854h-2.3l1.781 7.126h.148c-.148.692-.488 1.262-1.02 1.707-.533.445-1.156.668-1.874.668-.719 0-1.349-.223-1.893-.668-.544-.445-.891-1.015-1.039-1.707h.186l1.744-7.126h-.185c-.396 0-.594-.198-.594-.594 0-.396.198-.594.594-.594h4.156c0-.643.229-1.199.687-1.67.458-.47 1.021-.705 1.688-.705.644 0 1.201.235 1.67.705.47.471.705 1.027.705 1.67h4.156c.147 0 .283.056.407.167.125.111.186.254.186.427s-.061.315-.186.427c-.124.111-.26.167-.407.167h-.26l1.743 7.126h.148c-.124.692-.458 1.262-1.002 1.707-.543.445-1.174.668-1.892.668-.719 0-1.35-.223-1.893-.668-.544-.445-.878-1.015-1.002-1.707h.151zm-7.496-7.126h-.78l-1.744 7.126h4.267l-1.743-7.126zm4.972 0c.321 0 .599-.111.835-.334s.353-.507.353-.854c0-.346-.117-.631-.353-.854s-.514-.334-.835-.334c-.347 0-.631.111-.854.334s-.334.507-.334.854.111.631.334.854.507.334.854.334zm3.155 7.126h4.229l-1.743-7.126h-.742l-1.744 7.126z"/></svg>